<?xml version="1.0" encoding="UTF-8" standalone="no" ?>
<!DOCTYPE sesx>
<sesx version="1.2">

  <session appBuild="8.1.0.162" appVersion="8.1" audioChannelType="stereo" bitDepth="32" duration="1440000" sampleRate="48000">
    <name>Untitled Session 1_20161202T111747.274530.sesx</name>
    <tracks>
      <audioTrack automationLaneOpenState="false" id="10001" index="1" select="false" visible="true">
        <trackParameters trackHeight="134" trackHue="-1" trackMinimized="false">
          <name>Track 1</name>
        </trackParameters>
        <trackAudioParameters audioChannelType="stereo" automationMode="1" monitoring="false" recordArmed="false" solo="false" soloSafe="false">
          <trackOutput outputID="10000" type="trackID"/>
          <trackInput inputID="1"/>
          <component componentGuid="d5405e74-beac-4a71-b8a5-dd77cd0a1e84" componentID="Audition.Fader" id="trackFader" name="volume" powered="true">
            <parameter index="0" name="volume" parameterValue="1"/>
            <parameter index="1" name="static gain" parameterValue="1"/>
          </component>
          <component componentGuid="1f951a8c-eb82-42a1-8b46-dae21ccc2eff" componentID="Audition.Mute" id="trackMute" name="Mute" powered="true">
            <parameter index="0" parameterValue="0"/>
            <parameter index="1" name="mute" parameterValue="0"/>
          </component>
          <component componentGuid="5da75b35-7908-4edd-8322-eb366ca2a744" componentID="Audition.StereoPanner" id="trackPan" name="StereoPanner" powered="true">
            <parameter index="0" name="Pan" parameterValue="0"/>
          </component>
          <component componentGuid="6245ba4c-857d-4fab-ac59-4a02ec63f49f" componentID="Audition.EQ" id="trackEQ" name="EQ" powered="false">
            <parameter index="0" name="Low Shelf Frequency" parameterValue="0.000834"/>
            <parameter index="1" name="Low Shelf Gain" parameterValue="0.5"/>
            <parameter index="2" name="High Shelf Frequency" parameterValue="0.7497915"/>
            <parameter index="3" name="High Shelf Gain" parameterValue="0.5"/>
            <parameter index="4" name="EQ Band 1 Center Frequency" parameterValue="0.001251"/>
            <parameter index="5" name="EQ Band 1 Q" parameterValue="0.0002"/>
            <parameter index="6" name="EQ Band 1 Gain" parameterValue="0.5"/>
            <parameter index="7" name="EQ Band 1 Enable" parameterValue="1"/>
            <parameter index="8" name="EQ Band 2 Center Frequency" parameterValue="0.0075063"/>
            <parameter index="9" name="EQ Band 2 Q" parameterValue="0.0002"/>
            <parameter index="10" name="EQ Band 2 Gain" parameterValue="0.5"/>
            <parameter index="11" name="EQ Band 2 Enable" parameterValue="1"/>
            <parameter index="12" name="EQ Band 3 Center Frequency" parameterValue="0.0325271"/>
            <parameter index="13" name="EQ Band 3 Q" parameterValue="0.0002"/>
            <parameter index="14" name="EQ Band 3 Gain" parameterValue="0.5"/>
            <parameter index="15" name="EQ Band 3 Enable" parameterValue="1"/>
            <parameter index="16" name="EQ Band 4 Center Frequency" parameterValue="0.1326105"/>
            <parameter index="17" name="EQ Band 4 Q" parameterValue="0.0002"/>
            <parameter index="18" name="EQ Band 4 Gain" parameterValue="0.5"/>
            <parameter index="19" name="EQ Band 4 Enable" parameterValue="1"/>
            <parameter index="20" name="EQ Band 5 Center Frequency" parameterValue="0.5329441"/>
            <parameter index="21" name="EQ Band 5 Q" parameterValue="0.0002"/>
            <parameter index="22" name="EQ Band 5 Gain" parameterValue="0.5"/>
            <parameter index="23" name="EQ Band 5 Enable" parameterValue="1"/>
            <parameter index="24" name="Master Gain" parameterValue="0.6666667"/>
            <parameter index="25" name="ConstantQ" parameterValue="1"/>
            <parameter index="26" name="Low Shelf Filter Order" parameterValue="0"/>
            <parameter index="27" name="High Shelf Filter Order" parameterValue="0"/>
            <parameter index="28" name="Ultra-Quiet Mode" parameterValue="0"/>
            <parameter index="29" name="Low Shelf Enable" parameterValue="1"/>
            <parameter index="30" name="High Shelf Enable" parameterValue="1"/>
            <parameter index="31" name="Original Sample Rate" parameterValue="0.25"/>
            <parameter index="32" name="EQ Band 1 Bandwidth" parameterValue="0.0025"/>
            <parameter index="33" name="EQ Band 2 Bandwidth" parameterValue="0.01"/>
            <parameter index="34" name="EQ Band 3 Bandwidth" parameterValue="0.04"/>
            <parameter index="35" name="EQ Band 4 Bandwidth" parameterValue="0.16"/>
            <parameter index="36" name="EQ Band 5 Bandwidth" parameterValue="0.64"/>
            <parameter index="37" name="High-Pass Filter Enable" parameterValue="0"/>
            <parameter index="38" name="High-Pass Cutoff Frequency" parameterValue="0"/>
            <parameter index="39" name="High-Pass Slope" parameterValue="4"/>
            <parameter index="40" name="Low-Pass Filter Enable" parameterValue="0"/>
            <parameter index="41" name="Low-Pass Cutoff Frequency" parameterValue="0.8331943"/>
            <parameter index="42" name="Low-Pass Slope" parameterValue="4"/>
            <parameter index="43" name="Bypass" parameterValue="0"/>
            <parameter index="44" name="LowGraphRange" parameterValue="1"/>
          </component>
        </trackAudioParameters>
        <editParameter parameterIndex="0" slotIndex="4294967280"/>
        <sendList>
          <sendSlot preFader="false" sendOutputID="0" slotIndex="0">
            <component componentGuid="94e064cf-c977-4321-b687-e137188ec685" id="sendComponent" powered="false">
              <parameter index="0" name="Power On/Off" parameterValue="0"/>
              <parameter index="1" name="Level" parameterValue="0"/>
            </component>
            <component id="sendPan" powered="true"/>
          </sendSlot>
          <sendSlot preFader="false" sendOutputID="0" slotIndex="1">
            <component componentGuid="cc0dd9b0-4035-45e7-af7e-c0f846022b01" id="sendComponent" powered="false">
              <parameter index="0" name="Power On/Off" parameterValue="0"/>
              <parameter index="1" name="Level" parameterValue="0"/>
            </component>
            <component id="sendPan" powered="true"/>
          </sendSlot>
          <sendSlot preFader="false" sendOutputID="0" slotIndex="2">
            <component componentGuid="3c90c6e6-b462-4121-9cbd-77bc911dc1bd" id="sendComponent" powered="false">
              <parameter index="0" name="Power On/Off" parameterValue="0"/>
              <parameter index="1" name="Level" parameterValue="0"/>
            </component>
            <component id="sendPan" powered="true"/>
          </sendSlot>
          <sendSlot preFader="false" sendOutputID="0" slotIndex="3">
            <component componentGuid="492dc940-6969-4826-8f9b-69ed9ac7ee86" id="sendComponent" powered="false">
              <parameter index="0" name="Power On/Off" parameterValue="0"/>
              <parameter index="1" name="Level" parameterValue="0"/>
            </component>
            <component id="sendPan" powered="true"/>
          </sendSlot>
          <sendSlot preFader="false" sendOutputID="0" slotIndex="4">
            <component componentGuid="45504249-658a-41ca-b403-e8445d591e78" id="sendComponent" powered="false">
              <parameter index="0" name="Power On/Off" parameterValue="0"/>
              <parameter index="1" name="Level" parameterValue="0"/>
            </component>
            <component id="sendPan" powered="true"/>
          </sendSlot>
          <sendSlot preFader="false" sendOutputID="0" slotIndex="5">
            <component componentGuid="09e61027-fa0d-40e4-afda-9384c1f30360" id="sendComponent" powered="false">
              <parameter index="0" name="Power On/Off" parameterValue="0"/>
              <parameter index="1" name="Level" parameterValue="0"/>
            </component>
            <component id="sendPan" powered="true"/>
          </sendSlot>
          <sendSlot preFader="false" sendOutputID="0" slotIndex="6">
            <component componentGuid="84c1bb3a-445d-47eb-8bde-11345320d050" id="sendComponent" powered="false">
              <parameter index="0" name="Power On/Off" parameterValue="0"/>
              <parameter index="1" name="Level" parameterValue="0"/>
            </component>
            <component id="sendPan" powered="true"/>
          </sendSlot>
          <sendSlot preFader="false" sendOutputID="0" slotIndex="7">
            <component componentGuid="7ce4a545-ae8e-464f-af85-89d0e7ca5066" id="sendComponent" powered="false">
              <parameter index="0" name="Power On/Off" parameterValue="0"/>
              <parameter index="1" name="Level" parameterValue="0"/>
            </component>
            <component id="sendPan" powered="true"/>
          </sendSlot>
          <sendSlot preFader="false" sendOutputID="0" slotIndex="8">
            <component componentGuid="15e71aba-78c1-4403-bcf8-a49bef9e74a0" id="sendComponent" powered="false">
              <parameter index="0" name="Power On/Off" parameterValue="0"/>
              <parameter index="1" name="Level" parameterValue="0"/>
            </component>
            <component id="sendPan" powered="true"/>
          </sendSlot>
          <sendSlot preFader="false" sendOutputID="0" slotIndex="9">
            <component componentGuid="3a0808f6-7f5a-4b53-8aad-25c9ab143208" id="sendComponent" powered="false">
              <parameter index="0" name="Power On/Off" parameterValue="0"/>
              <parameter index="1" name="Level" parameterValue="0"/>
            </component>
            <component id="sendPan" powered="true"/>
          </sendSlot>
          <sendSlot preFader="false" sendOutputID="0" slotIndex="10">
            <component componentGuid="6830481a-908f-4c1f-a62f-0c5f7988b041" id="sendComponent" powered="false">
              <parameter index="0" name="Power On/Off" parameterValue="0"/>
              <parameter index="1" name="Level" parameterValue="0"/>
            </component>
            <component id="sendPan" powered="true"/>
          </sendSlot>
          <sendSlot preFader="false" sendOutputID="0" slotIndex="11">
            <component componentGuid="8a407d57-4b0b-48af-bbcc-c5e16fce8a72" id="sendComponent" powered="false">
              <parameter index="0" name="Power On/Off" parameterValue="0"/>
              <parameter index="1" name="Level" parameterValue="0"/>
            </component>
            <component id="sendPan" powered="true"/>
          </sendSlot>
          <sendSlot preFader="false" sendOutputID="0" slotIndex="12">
            <component componentGuid="aa4fba78-7cde-43e9-9a6f-a59d441cabbe" id="sendComponent" powered="false">
              <parameter index="0" name="Power On/Off" parameterValue="0"/>
              <parameter index="1" name="Level" parameterValue="0"/>
            </component>
            <component id="sendPan" powered="true"/>
          </sendSlot>
          <sendSlot preFader="false" sendOutputID="0" slotIndex="13">
            <component componentGuid="38ec7009-d0ef-4116-bbd2-1ffb3ee769f5" id="sendComponent" powered="false">
              <parameter index="0" name="Power On/Off" parameterValue="0"/>
              <parameter index="1" name="Level" parameterValue="0"/>
            </component>
            <component id="sendPan" powered="true"/>
          </sendSlot>
          <sendSlot preFader="false" sendOutputID="0" slotIndex="14">
            <component componentGuid="253977ae-4f23-437a-bcaa-5f50750def05" id="sendComponent" powered="false">
              <parameter index="0" name="Power On/Off" parameterValue="0"/>
              <parameter index="1" name="Level" parameterValue="0"/>
            </component>
            <component id="sendPan" powered="true"/>
          </sendSlot>
          <sendSlot preFader="false" sendOutputID="0" slotIndex="15">
            <component componentGuid="aa540a46-bbcd-4d9c-b0d7-4c3f02817410" id="sendComponent" powered="false">
              <parameter index="0" name="Power On/Off" parameterValue="0"/>
              <parameter index="1" name="Level" parameterValue="0"/>
            </component>
            <component id="sendPan" powered="true"/>
          </sendSlot>
        </sendList>
        <audioClip clipAutoCrossfade="true" crossFadeHeadClipID="-1" crossFadeTailClipID="-1" endPoint="18420" fileID="0" hue="-1" id="0" lockedInTime="false" looped="false" name="vulture-1 48000 1" offline="false" select="false" sourceInPoint="0" sourceOutPoint="18420" startPoint="0" zOrder="7">
          <component componentGuid="028dcc1e-5359-4d8c-8d63-bce8af00dca7" componentID="Audition.Fader" id="clipGain" name="volume" powered="true">
            <parameter index="0" name="volume" parameterValue="1"/>
            <parameter index="1" name="static gain" parameterValue="1"/>
          </component>
          <component componentGuid="190befce-fae3-491b-acdb-ebb8b7cb895d" componentID="Audition.Mute" id="clipMute" name="Mute" powered="true">
            <parameter index="0" parameterValue="0"/>
            <parameter index="1" name="mute" parameterValue="0"/>
          </component>
          <component componentGuid="0a5ff6af-1154-4f88-ba94-bb1097056a1c" componentID="Audition.StereoPanner" id="clipPan" name="StereoPanner" powered="true">
            <parameter index="0" name="Pan" parameterValue="0"/>
          </component>
          <fadeIn crossFadeLinkType="linkedAsymmetric" endPoint="0" shape="0" startPoint="0" type="cosine"/>
          <fadeOut crossFadeLinkType="linkedAsymmetric" endPoint="18420" shape="0" startPoint="18420" type="cosine"/>
          <editParameter parameterIndex="0" slotIndex="4294967281"/>
          <editParameter parameterIndex="0" slotIndex="4294967280"/>
          <channelMap>
            <channel index="0" sourceIndex="0"/>
          </channelMap>
        </audioClip>
        <audioClip clipAutoCrossfade="true" crossFadeHeadClipID="-1" crossFadeTailClipID="-1" endPoint="36841" fileID="0" hue="-1" id="1" lockedInTime="false" looped="false" name="vulture-1 48000 1" offline="false" select="false" sourceInPoint="0" sourceOutPoint="18421" startPoint="18420" zOrder="8">
          <component componentGuid="da2da9ab-83dc-4543-bfe3-df2e445f76f6" componentID="Audition.Fader" id="clipGain" name="volume" powered="true">
            <parameter index="0" name="volume" parameterValue="1"/>
            <parameter index="1" name="static gain" parameterValue="1"/>
          </component>
          <component componentGuid="cca3b03e-d02a-492e-9f21-efc04af6bf41" componentID="Audition.Mute" id="clipMute" name="Mute" powered="true">
            <parameter index="0" parameterValue="0"/>
            <parameter index="1" name="mute" parameterValue="0"/>
          </component>
          <component componentGuid="8bc03463-5644-4c55-af0e-63076ad78358" componentID="Audition.StereoPanner" id="clipPan" name="StereoPanner" powered="true">
            <parameter index="0" name="Pan" parameterValue="0"/>
          </component>
          <fadeIn crossFadeLinkType="linkedAsymmetric" endPoint="0" shape="0" startPoint="0" type="cosine"/>
          <fadeOut crossFadeLinkType="linkedAsymmetric" endPoint="18421" shape="0" startPoint="18421" type="cosine"/>
          <editParameter parameterIndex="0" slotIndex="4294967281"/>
          <editParameter parameterIndex="0" slotIndex="4294967280"/>
          <channelMap>
            <channel index="0" sourceIndex="0"/>
          </channelMap>
        </audioClip>
        <audioClip clipAutoCrossfade="true" crossFadeHeadClipID="-1" crossFadeTailClipID="3" endPoint="55313" fileID="0" hue="-1" id="2" lockedInTime="false" looped="false" name="vulture-1 48000 1" offline="false" select="false" sourceInPoint="0" sourceOutPoint="18421" startPoint="36892" zOrder="9">
          <component componentGuid="b6496537-27e5-49fc-a567-4b0473cc6cc0" componentID="Audition.Fader" id="clipGain" name="volume" powered="true">
            <parameter index="0" name="volume" parameterValue="1"/>
            <parameter index="1" name="static gain" parameterValue="1"/>
          </component>
          <component componentGuid="2e97ac13-ca72-41aa-89af-88697e2ea470" componentID="Audition.Mute" id="clipMute" name="Mute" powered="true">
            <parameter index="0" parameterValue="0"/>
            <parameter index="1" name="mute" parameterValue="0"/>
          </component>
          <component componentGuid="47437a17-c86c-4a1f-8e8e-e795a81239f5" componentID="Audition.StereoPanner" id="clipPan" name="StereoPanner" powered="true">
            <parameter index="0" name="Pan" parameterValue="0"/>
          </component>
          <fadeIn crossFadeLinkType="linkedAsymmetric" endPoint="0" shape="0" startPoint="0" type="cosine"/>
          <fadeOut crossFadeLinkType="linkedAsymmetric" endPoint="18421" shape="18" startPoint="18370" type="log"/>
          <editParameter parameterIndex="0" slotIndex="4294967281"/>
          <editParameter parameterIndex="0" slotIndex="4294967280"/>
          <channelMap>
            <channel index="0" sourceIndex="0"/>
          </channelMap>
        </audioClip>
        <audioClip clipAutoCrossfade="true" crossFadeHeadClipID="2" crossFadeTailClipID="-1" endPoint="73683" fileID="0" hue="-1" id="3" lockedInTime="false" looped="false" name="vulture-1 48000 1" offline="false" select="false" sourceInPoint="0" sourceOutPoint="18421" startPoint="55262" zOrder="12">
          <component componentGuid="5bb408fe-13e1-41bc-92e0-e2f86c2f409b" componentID="Audition.Fader" id="clipGain" name="volume" powered="true">
            <parameter index="0" name="volume" parameterValue="1"/>
            <parameter index="1" name="static gain" parameterValue="1"/>
          </component>
          <component componentGuid="9eb8145f-b536-4a40-a68a-fcbe45efe32c" componentID="Audition.Mute" id="clipMute" name="Mute" powered="true">
            <parameter index="0" parameterValue="0"/>
            <parameter index="1" name="mute" parameterValue="0"/>
          </component>
          <component componentGuid="f008cad9-792e-4b41-8e1b-b5db5189b406" componentID="Audition.StereoPanner" id="clipPan" name="StereoPanner" powered="true">
            <parameter index="0" name="Pan" parameterValue="0"/>
          </component>
          <fadeIn crossFadeLinkType="linkedAsymmetric" endPoint="51" shape="19" startPoint="0" type="log"/>
          <fadeOut crossFadeLinkType="linkedAsymmetric" endPoint="18421" shape="18" startPoint="18421" type="log"/>
          <editParameter parameterIndex="0" slotIndex="4294967281"/>
          <editParameter parameterIndex="0" slotIndex="4294967280"/>
          <channelMap>
            <channel index="0" sourceIndex="0"/>
          </channelMap>
        </audioClip>
        <audioClip clipAutoCrossfade="true" crossFadeHeadClipID="-1" crossFadeTailClipID="-1" endPoint="92294" fileID="0" hue="-1" id="4" lockedInTime="false" looped="false" name="vulture-1 48000 1" offline="false" select="false" sourceInPoint="0" sourceOutPoint="18421" startPoint="73873" zOrder="13">
          <component componentGuid="6cec6b04-24e3-4cd2-ad9f-b16dd9d16709" componentID="Audition.Fader" id="clipGain" name="volume" powered="true">
            <parameter index="0" name="volume" parameterValue="1"/>
            <parameter index="1" name="static gain" parameterValue="1"/>
          </component>
          <component componentGuid="2a71787f-26c5-4742-9733-58d0aaf8f5b0" componentID="Audition.Mute" id="clipMute" name="Mute" powered="true">
            <parameter index="0" parameterValue="0"/>
            <parameter index="1" name="mute" parameterValue="0"/>
          </component>
          <component componentGuid="0fe80c8b-3777-4f57-b185-494040d48e2d" componentID="Audition.StereoPanner" id="clipPan" name="StereoPanner" powered="true">
            <parameter index="0" name="Pan" parameterValue="0"/>
          </component>
          <fadeIn crossFadeLinkType="linkedAsymmetric" endPoint="0" shape="0" startPoint="0" type="cosine"/>
          <fadeOut crossFadeLinkType="linkedAsymmetric" endPoint="18421" shape="0" startPoint="18421" type="cosine"/>
          <editParameter parameterIndex="0" slotIndex="4294967281"/>
          <editParameter parameterIndex="0" slotIndex="4294967280"/>
          <channelMap>
            <channel index="0" sourceIndex="0"/>
          </channelMap>
        </audioClip>
        <audioClip clipAutoCrossfade="true" crossFadeHeadClipID="-1" crossFadeTailClipID="-1" endPoint="110910" fileID="0" hue="-1" id="5" lockedInTime="false" looped="false" name="vulture-1 48000 1" offline="false" select="false" sourceInPoint="0" sourceOutPoint="18421" startPoint="92489" zOrder="14">
          <component componentGuid="1adfffb9-c5bc-4dcc-9bec-4e947a424e6b" componentID="Audition.Fader" id="clipGain" name="volume" powered="true">
            <parameter index="0" name="volume" parameterValue="1"/>
            <parameter index="1" name="static gain" parameterValue="1"/>
          </component>
          <component componentGuid="313dbf7d-3ba2-452a-b78f-952d18a948a9" componentID="Audition.Mute" id="clipMute" name="Mute" powered="true">
            <parameter index="0" parameterValue="0"/>
            <parameter index="1" name="mute" parameterValue="0"/>
          </component>
          <component componentGuid="3aa90d74-06db-4a0a-86fb-bdc4603f9ead" componentID="Audition.StereoPanner" id="clipPan" name="StereoPanner" powered="true">
            <parameter index="0" name="Pan" parameterValue="0"/>
          </component>
          <fadeIn crossFadeLinkType="linkedAsymmetric" endPoint="0" shape="0" startPoint="0" type="cosine"/>
          <fadeOut crossFadeLinkType="linkedAsymmetric" endPoint="18421" shape="0" startPoint="18421" type="cosine"/>
          <editParameter parameterIndex="0" slotIndex="4294967281"/>
          <editParameter parameterIndex="0" slotIndex="4294967280"/>
          <channelMap>
            <channel index="0" sourceIndex="0"/>
          </channelMap>
        </audioClip>
        <audioClip clipAutoCrossfade="true" crossFadeHeadClipID="-1" crossFadeTailClipID="-1" endPoint="129526" fileID="0" hue="-1" id="6" lockedInTime="false" looped="false" name="vulture-1 48000 1" offline="false" select="false" sourceInPoint="0" sourceOutPoint="18421" startPoint="111105" zOrder="15">
          <component componentGuid="2727f68e-2571-48ac-88d5-8b3701000e59" componentID="Audition.Fader" id="clipGain" name="volume" powered="true">
            <parameter index="0" name="volume" parameterValue="1"/>
            <parameter index="1" name="static gain" parameterValue="1"/>
          </component>
          <component componentGuid="8ea25958-5713-4186-bf2b-ae0ccf00b9ed" componentID="Audition.Mute" id="clipMute" name="Mute" powered="true">
            <parameter index="0" parameterValue="0"/>
            <parameter index="1" name="mute" parameterValue="0"/>
          </component>
          <component componentGuid="47488127-2a7f-4ccd-802f-9d7e83528228" componentID="Audition.StereoPanner" id="clipPan" name="StereoPanner" powered="true">
            <parameter index="0" name="Pan" parameterValue="0"/>
          </component>
          <fadeIn crossFadeLinkType="linkedAsymmetric" endPoint="0" shape="0" startPoint="0" type="cosine"/>
          <fadeOut crossFadeLinkType="linkedAsymmetric" endPoint="18421" shape="0" startPoint="18421" type="cosine"/>
          <editParameter parameterIndex="0" slotIndex="4294967281"/>
          <editParameter parameterIndex="0" slotIndex="4294967280"/>
          <channelMap>
            <channel index="0" sourceIndex="0"/>
          </channelMap>
        </audioClip>
        <audioClip clipAutoCrossfade="true" crossFadeHeadClipID="-1" crossFadeTailClipID="-1" endPoint="148142" fileID="0" hue="-1" id="7" lockedInTime="false" looped="false" name="vulture-1 48000 1" offline="false" select="false" sourceInPoint="0" sourceOutPoint="18421" startPoint="129721" zOrder="16">
          <component componentGuid="fecfecf4-d39e-4519-beb4-f7cabf920430" componentID="Audition.Fader" id="clipGain" name="volume" powered="true">
            <parameter index="0" name="volume" parameterValue="1"/>
            <parameter index="1" name="static gain" parameterValue="1"/>
          </component>
          <component componentGuid="f940a53e-595e-4456-bd0b-91e6f53e5c9a" componentID="Audition.Mute" id="clipMute" name="Mute" powered="true">
            <parameter index="0" parameterValue="0"/>
            <parameter index="1" name="mute" parameterValue="0"/>
          </component>
          <component componentGuid="53974d03-e13f-47ee-84a5-c0a2ab327467" componentID="Audition.StereoPanner" id="clipPan" name="StereoPanner" powered="true">
            <parameter index="0" name="Pan" parameterValue="0"/>
          </component>
          <fadeIn crossFadeLinkType="linkedAsymmetric" endPoint="0" shape="0" startPoint="0" type="cosine"/>
          <fadeOut crossFadeLinkType="linkedAsymmetric" endPoint="18421" shape="0" startPoint="18421" type="cosine"/>
          <editParameter parameterIndex="0" slotIndex="4294967281"/>
          <editParameter parameterIndex="0" slotIndex="4294967280"/>
          <channelMap>
            <channel index="0" sourceIndex="0"/>
          </channelMap>
        </audioClip>
      </audioTrack>
      <audioTrack automationLaneOpenState="false" id="10002" index="2" select="true" visible="true">
        <trackParameters trackHeight="134" trackHue="289.10788536071777" trackMinimized="false">
          <name>Track 2</name>
        </trackParameters>
        <trackAudioParameters audioChannelType="stereo" automationMode="1" monitoring="false" recordArmed="false" solo="false" soloSafe="false">
          <trackOutput outputID="10000" type="trackID"/>
          <trackInput inputID="1"/>
          <component componentGuid="3d6620f4-5d0c-4e1e-a009-b00fab4d71cf" componentID="Audition.Fader" id="trackFader" name="volume" powered="true">
            <parameter index="0" name="volume" parameterValue="1"/>
            <parameter index="1" name="static gain" parameterValue="1"/>
          </component>
          <component componentGuid="2edfcc9f-555a-4644-b1c6-72c6f375a05e" componentID="Audition.Mute" id="trackMute" name="Mute" powered="true">
            <parameter index="0" parameterValue="0"/>
            <parameter index="1" name="mute" parameterValue="0"/>
          </component>
          <component componentGuid="3b075d90-cbf7-41f6-af1f-ddd8926490a7" componentID="Audition.StereoPanner" id="trackPan" name="StereoPanner" powered="true">
            <parameter index="0" name="Pan" parameterValue="0"/>
          </component>
          <component componentGuid="a316b76b-1f99-462f-9fa5-e7150d4cd5a6" componentID="Audition.EQ" id="trackEQ" name="EQ" powered="false">
            <parameter index="0" name="Low Shelf Frequency" parameterValue="0.000834"/>
            <parameter index="1" name="Low Shelf Gain" parameterValue="0.5"/>
            <parameter index="2" name="High Shelf Frequency" parameterValue="0.7497915"/>
            <parameter index="3" name="High Shelf Gain" parameterValue="0.5"/>
            <parameter index="4" name="EQ Band 1 Center Frequency" parameterValue="0.001251"/>
            <parameter index="5" name="EQ Band 1 Q" parameterValue="0.0002"/>
            <parameter index="6" name="EQ Band 1 Gain" parameterValue="0.5"/>
            <parameter index="7" name="EQ Band 1 Enable" parameterValue="1"/>
            <parameter index="8" name="EQ Band 2 Center Frequency" parameterValue="0.0075063"/>
            <parameter index="9" name="EQ Band 2 Q" parameterValue="0.0002"/>
            <parameter index="10" name="EQ Band 2 Gain" parameterValue="0.5"/>
            <parameter index="11" name="EQ Band 2 Enable" parameterValue="1"/>
            <parameter index="12" name="EQ Band 3 Center Frequency" parameterValue="0.0325271"/>
            <parameter index="13" name="EQ Band 3 Q" parameterValue="0.0002"/>
            <parameter index="14" name="EQ Band 3 Gain" parameterValue="0.5"/>
            <parameter index="15" name="EQ Band 3 Enable" parameterValue="1"/>
            <parameter index="16" name="EQ Band 4 Center Frequency" parameterValue="0.1326105"/>
            <parameter index="17" name="EQ Band 4 Q" parameterValue="0.0002"/>
            <parameter index="18" name="EQ Band 4 Gain" parameterValue="0.5"/>
            <parameter index="19" name="EQ Band 4 Enable" parameterValue="1"/>
            <parameter index="20" name="EQ Band 5 Center Frequency" parameterValue="0.5329441"/>
            <parameter index="21" name="EQ Band 5 Q" parameterValue="0.0002"/>
            <parameter index="22" name="EQ Band 5 Gain" parameterValue="0.5"/>
            <parameter index="23" name="EQ Band 5 Enable" parameterValue="1"/>
            <parameter index="24" name="Master Gain" parameterValue="0.6666667"/>
            <parameter index="25" name="ConstantQ" parameterValue="1"/>
            <parameter index="26" name="Low Shelf Filter Order" parameterValue="0"/>
            <parameter index="27" name="High Shelf Filter Order" parameterValue="0"/>
            <parameter index="28" name="Ultra-Quiet Mode" parameterValue="0"/>
            <parameter index="29" name="Low Shelf Enable" parameterValue="1"/>
            <parameter index="30" name="High Shelf Enable" parameterValue="1"/>
            <parameter index="31" name="Original Sample Rate" parameterValue="0.25"/>
            <parameter index="32" name="EQ Band 1 Bandwidth" parameterValue="0.0025"/>
            <parameter index="33" name="EQ Band 2 Bandwidth" parameterValue="0.01"/>
            <parameter index="34" name="EQ Band 3 Bandwidth" parameterValue="0.04"/>
            <parameter index="35" name="EQ Band 4 Bandwidth" parameterValue="0.16"/>
            <parameter index="36" name="EQ Band 5 Bandwidth" parameterValue="0.64"/>
            <parameter index="37" name="High-Pass Filter Enable" parameterValue="0"/>
            <parameter index="38" name="High-Pass Cutoff Frequency" parameterValue="0"/>
            <parameter index="39" name="High-Pass Slope" parameterValue="4"/>
            <parameter index="40" name="Low-Pass Filter Enable" parameterValue="0"/>
            <parameter index="41" name="Low-Pass Cutoff Frequency" parameterValue="0.8331943"/>
            <parameter index="42" name="Low-Pass Slope" parameterValue="4"/>
            <parameter index="43" name="Bypass" parameterValue="0"/>
            <parameter index="44" name="LowGraphRange" parameterValue="1"/>
          </component>
        </trackAudioParameters>
        <editParameter parameterIndex="0" slotIndex="4294967280"/>
        <sendList>
          <sendSlot preFader="false" sendOutputID="0" slotIndex="0">
            <component componentGuid="f1f16592-2e96-4354-a8ef-b1af281596ef" id="sendComponent" powered="false">
              <parameter index="0" name="Power On/Off" parameterValue="0"/>
              <parameter index="1" name="Level" parameterValue="0"/>
            </component>
            <component id="sendPan" powered="true"/>
          </sendSlot>
          <sendSlot preFader="false" sendOutputID="0" slotIndex="1">
            <component componentGuid="7c256c99-20ce-4329-97f7-f4c03add0fe7" id="sendComponent" powered="false">
              <parameter index="0" name="Power On/Off" parameterValue="0"/>
              <parameter index="1" name="Level" parameterValue="0"/>
            </component>
            <component id="sendPan" powered="true"/>
          </sendSlot>
          <sendSlot preFader="false" sendOutputID="0" slotIndex="2">
            <component componentGuid="47eae7a0-b9b5-48ee-9c0c-7b71895cf234" id="sendComponent" powered="false">
              <parameter index="0" name="Power On/Off" parameterValue="0"/>
              <parameter index="1" name="Level" parameterValue="0"/>
            </component>
            <component id="sendPan" powered="true"/>
          </sendSlot>
          <sendSlot preFader="false" sendOutputID="0" slotIndex="3">
            <component componentGuid="ebdcd2e0-fae0-4bbd-af82-643517054279" id="sendComponent" powered="false">
              <parameter index="0" name="Power On/Off" parameterValue="0"/>
              <parameter index="1" name="Level" parameterValue="0"/>
            </component>
            <component id="sendPan" powered="true"/>
          </sendSlot>
          <sendSlot preFader="false" sendOutputID="0" slotIndex="4">
            <component componentGuid="faf7c991-c06b-45f6-8b14-1c2d7604e8e2" id="sendComponent" powered="false">
              <parameter index="0" name="Power On/Off" parameterValue="0"/>
              <parameter index="1" name="Level" parameterValue="0"/>
            </component>
            <component id="sendPan" powered="true"/>
          </sendSlot>
          <sendSlot preFader="false" sendOutputID="0" slotIndex="5">
            <component componentGuid="b681dc3f-eab7-4cf8-a469-8e68743baaf7" id="sendComponent" powered="false">
              <parameter index="0" name="Power On/Off" parameterValue="0"/>
              <parameter index="1" name="Level" parameterValue="0"/>
            </component>
            <component id="sendPan" powered="true"/>
          </sendSlot>
          <sendSlot preFader="false" sendOutputID="0" slotIndex="6">
            <component componentGuid="533de7b7-28f4-43f1-868f-dcf0d6d900fa" id="sendComponent" powered="false">
              <parameter index="0" name="Power On/Off" parameterValue="0"/>
              <parameter index="1" name="Level" parameterValue="0"/>
            </component>
            <component id="sendPan" powered="true"/>
          </sendSlot>
          <sendSlot preFader="false" sendOutputID="0" slotIndex="7">
            <component componentGuid="448d666f-2520-4dfb-9b06-cb8664c91271" id="sendComponent" powered="false">
              <parameter index="0" name="Power On/Off" parameterValue="0"/>
              <parameter index="1" name="Level" parameterValue="0"/>
            </component>
            <component id="sendPan" powered="true"/>
          </sendSlot>
          <sendSlot preFader="false" sendOutputID="0" slotIndex="8">
            <component componentGuid="da6b9078-2db1-4073-9d42-cf389ed22df0" id="sendComponent" powered="false">
              <parameter index="0" name="Power On/Off" parameterValue="0"/>
              <parameter index="1" name="Level" parameterValue="0"/>
            </component>
            <component id="sendPan" powered="true"/>
          </sendSlot>
          <sendSlot preFader="false" sendOutputID="0" slotIndex="9">
            <component componentGuid="6fa21370-42fa-4f86-92ca-dbe5cb4ac0cd" id="sendComponent" powered="false">
              <parameter index="0" name="Power On/Off" parameterValue="0"/>
              <parameter index="1" name="Level" parameterValue="0"/>
            </component>
            <component id="sendPan" powered="true"/>
          </sendSlot>
          <sendSlot preFader="false" sendOutputID="0" slotIndex="10">
            <component componentGuid="9fbe847d-696f-4b6b-a6c1-76ed44e3c190" id="sendComponent" powered="false">
              <parameter index="0" name="Power On/Off" parameterValue="0"/>
              <parameter index="1" name="Level" parameterValue="0"/>
            </component>
            <component id="sendPan" powered="true"/>
          </sendSlot>
          <sendSlot preFader="false" sendOutputID="0" slotIndex="11">
            <component componentGuid="f96855b3-86d1-4838-8d10-6d0ac4a8cd91" id="sendComponent" powered="false">
              <parameter index="0" name="Power On/Off" parameterValue="0"/>
              <parameter index="1" name="Level" parameterValue="0"/>
            </component>
            <component id="sendPan" powered="true"/>
          </sendSlot>
          <sendSlot preFader="false" sendOutputID="0" slotIndex="12">
            <component componentGuid="a0e953f2-e65d-42b9-bb90-43f195bedd03" id="sendComponent" powered="false">
              <parameter index="0" name="Power On/Off" parameterValue="0"/>
              <parameter index="1" name="Level" parameterValue="0"/>
            </component>
            <component id="sendPan" powered="true"/>
          </sendSlot>
          <sendSlot preFader="false" sendOutputID="0" slotIndex="13">
            <component componentGuid="19238738-b21a-419d-aca7-ba328d88f927" id="sendComponent" powered="false">
              <parameter index="0" name="Power On/Off" parameterValue="0"/>
              <parameter index="1" name="Level" parameterValue="0"/>
            </component>
            <component id="sendPan" powered="true"/>
          </sendSlot>
          <sendSlot preFader="false" sendOutputID="0" slotIndex="14">
            <component componentGuid="f1bd524f-c66d-4d52-a816-b5be7429de87" id="sendComponent" powered="false">
              <parameter index="0" name="Power On/Off" parameterValue="0"/>
              <parameter index="1" name="Level" parameterValue="0"/>
            </component>
            <component id="sendPan" powered="true"/>
          </sendSlot>
          <sendSlot preFader="false" sendOutputID="0" slotIndex="15">
            <component componentGuid="ddebad8b-7ba6-4825-a94e-8a516a66cf59" id="sendComponent" powered="false">
              <parameter index="0" name="Power On/Off" parameterValue="0"/>
              <parameter index="1" name="Level" parameterValue="0"/>
            </component>
            <component id="sendPan" powered="true"/>
          </sendSlot>
        </sendList>
        <audioClip clipAutoCrossfade="true" crossFadeHeadClipID="-1" crossFadeTailClipID="-1" endPoint="27029" fileID="0" hue="-1" id="0" lockedInTime="false" looped="false" name="vulture-1 48000 1" offline="false" select="false" sourceInPoint="0" sourceOutPoint="18421" startPoint="8608" zOrder="0">
          <component componentGuid="971f45ae-4611-4767-80f7-d3458f9d2216" componentID="Audition.Fader" id="clipGain" name="volume" powered="true">
            <parameter index="0" name="volume" parameterValue="1"/>
            <parameter index="1" name="static gain" parameterValue="1"/>
          </component>
          <component componentGuid="92aa13fa-fe30-4909-9102-867e5fc7fe23" componentID="Audition.Mute" id="clipMute" name="Mute" powered="true">
            <parameter index="0" parameterValue="0"/>
            <parameter index="1" name="mute" parameterValue="0"/>
          </component>
          <component componentGuid="95fd59f8-ffb7-46cd-a568-fffff32af38c" componentID="Audition.StereoPanner" id="clipPan" name="StereoPanner" powered="true">
            <parameter index="0" name="Pan" parameterValue="0"/>
          </component>
          <fadeIn crossFadeLinkType="linkedAsymmetric" endPoint="0" shape="0" startPoint="0" type="cosine"/>
          <fadeOut crossFadeLinkType="linkedAsymmetric" endPoint="18421" shape="0" startPoint="18421" type="cosine"/>
          <editParameter parameterIndex="0" slotIndex="4294967281"/>
          <editParameter parameterIndex="0" slotIndex="4294967280"/>
          <channelMap>
            <channel index="0" sourceIndex="0"/>
          </channelMap>
        </audioClip>
        <audioClip clipAutoCrossfade="true" crossFadeHeadClipID="-1" crossFadeTailClipID="-1" endPoint="45450" fileID="0" hue="-1" id="1" lockedInTime="false" looped="false" name="vulture-1 48000 1" offline="false" select="false" sourceInPoint="0" sourceOutPoint="18421" startPoint="27029" zOrder="2">
          <component componentGuid="214585b3-d875-43a0-9bd2-524783e183ac" componentID="Audition.Fader" id="clipGain" name="volume" powered="true">
            <parameter index="0" name="volume" parameterValue="1"/>
            <parameter index="1" name="static gain" parameterValue="1"/>
          </component>
          <component componentGuid="b46c9ce9-be52-4fe0-b400-e00250ff8aea" componentID="Audition.Mute" id="clipMute" name="Mute" powered="true">
            <parameter index="0" parameterValue="0"/>
            <parameter index="1" name="mute" parameterValue="0"/>
          </component>
          <component componentGuid="ba15cab3-06cb-4390-a87a-5ce6a221fd00" componentID="Audition.StereoPanner" id="clipPan" name="StereoPanner" powered="true">
            <parameter index="0" name="Pan" parameterValue="0"/>
          </component>
          <fadeIn crossFadeLinkType="linkedAsymmetric" endPoint="0" shape="0" startPoint="0" type="cosine"/>
          <fadeOut crossFadeLinkType="linkedAsymmetric" endPoint="18421" shape="18" startPoint="18421" type="log"/>
          <editParameter parameterIndex="0" slotIndex="4294967281"/>
          <editParameter parameterIndex="0" slotIndex="4294967280"/>
          <channelMap>
            <channel index="0" sourceIndex="0"/>
          </channelMap>
        </audioClip>
        <audioClip clipAutoCrossfade="true" crossFadeHeadClipID="-1" crossFadeTailClipID="3" endPoint="63871" fileID="0" hue="-1" id="2" lockedInTime="false" looped="false" name="vulture-1 48000 1" offline="false" select="false" sourceInPoint="0" sourceOutPoint="18421" startPoint="45450" zOrder="11">
          <component componentGuid="c4b9fa72-7444-4ac2-a43c-2f31444940fe" componentID="Audition.Fader" id="clipGain" name="volume" powered="true">
            <parameter index="0" name="volume" parameterValue="1"/>
            <parameter index="1" name="static gain" parameterValue="1"/>
          </component>
          <component componentGuid="2cb92b07-8f2b-40b9-9d23-6dc8510ddb6b" componentID="Audition.Mute" id="clipMute" name="Mute" powered="true">
            <parameter index="0" parameterValue="0"/>
            <parameter index="1" name="mute" parameterValue="0"/>
          </component>
          <component componentGuid="609c4d84-36cb-4ea1-aa9d-fc9c55196d6e" componentID="Audition.StereoPanner" id="clipPan" name="StereoPanner" powered="true">
            <parameter index="0" name="Pan" parameterValue="0"/>
          </component>
          <fadeIn crossFadeLinkType="linkedAsymmetric" endPoint="0" shape="19" startPoint="0" type="log"/>
          <fadeOut crossFadeLinkType="linkedAsymmetric" endPoint="18421" shape="18" startPoint="18377" type="log"/>
          <editParameter parameterIndex="0" slotIndex="4294967281"/>
          <editParameter parameterIndex="0" slotIndex="4294967280"/>
          <channelMap>
            <channel index="0" sourceIndex="0"/>
          </channelMap>
        </audioClip>
        <audioClip clipAutoCrossfade="true" crossFadeHeadClipID="2" crossFadeTailClipID="-1" endPoint="82248" fileID="0" hue="-1" id="3" lockedInTime="false" looped="false" name="vulture-1 48000 1" offline="false" select="false" sourceInPoint="0" sourceOutPoint="18421" startPoint="63827" zOrder="15">
          <component componentGuid="cd792d35-7d08-4ad0-a9f5-f77b2ae51c8c" componentID="Audition.Fader" id="clipGain" name="volume" powered="true">
            <parameter index="0" name="volume" parameterValue="1"/>
            <parameter index="1" name="static gain" parameterValue="1"/>
          </component>
          <component componentGuid="4c4c964e-0a72-494d-81b1-72e99f0d4c2e" componentID="Audition.Mute" id="clipMute" name="Mute" powered="true">
            <parameter index="0" parameterValue="0"/>
            <parameter index="1" name="mute" parameterValue="0"/>
          </component>
          <component componentGuid="c289328a-be2b-4d4f-accc-11b1b593b75d" componentID="Audition.StereoPanner" id="clipPan" name="StereoPanner" powered="true">
            <parameter index="0" name="Pan" parameterValue="0"/>
          </component>
          <fadeIn crossFadeLinkType="linkedAsymmetric" endPoint="44" shape="19" startPoint="0" type="log"/>
          <fadeOut crossFadeLinkType="linkedAsymmetric" endPoint="18421" shape="0" startPoint="18421" type="cosine"/>
          <editParameter parameterIndex="0" slotIndex="4294967281"/>
          <editParameter parameterIndex="0" slotIndex="4294967280"/>
          <channelMap>
            <channel index="0" sourceIndex="0"/>
          </channelMap>
        </audioClip>
        <audioClip clipAutoCrossfade="true" crossFadeHeadClipID="-1" crossFadeTailClipID="5" endPoint="100864" fileID="0" hue="-1" id="4" lockedInTime="false" looped="false" name="vulture-1 48000 1" offline="false" select="false" sourceInPoint="0" sourceOutPoint="18421" startPoint="82443" zOrder="16">
          <component componentGuid="d0a8fe19-3692-445f-807f-e492a986af2e" componentID="Audition.Fader" id="clipGain" name="volume" powered="true">
            <parameter index="0" name="volume" parameterValue="1"/>
            <parameter index="1" name="static gain" parameterValue="1"/>
          </component>
          <component componentGuid="e08c9e07-ea24-46ee-ab93-d75624d81d42" componentID="Audition.Mute" id="clipMute" name="Mute" powered="true">
            <parameter index="0" parameterValue="0"/>
            <parameter index="1" name="mute" parameterValue="0"/>
          </component>
          <component componentGuid="b83e39d4-63a3-4d94-9c7e-e5cfbaf2bb78" componentID="Audition.StereoPanner" id="clipPan" name="StereoPanner" powered="true">
            <parameter index="0" name="Pan" parameterValue="0"/>
          </component>
          <fadeIn crossFadeLinkType="linkedAsymmetric" endPoint="0" shape="0" startPoint="0" type="cosine"/>
          <fadeOut crossFadeLinkType="linkedAsymmetric" endPoint="18421" shape="18" startPoint="18320" type="log"/>
          <editParameter parameterIndex="0" slotIndex="4294967281"/>
          <editParameter parameterIndex="0" slotIndex="4294967280"/>
          <channelMap>
            <channel index="0" sourceIndex="0"/>
          </channelMap>
        </audioClip>
        <audioClip clipAutoCrossfade="true" crossFadeHeadClipID="4" crossFadeTailClipID="-1" endPoint="119184" fileID="0" hue="-1" id="5" lockedInTime="false" looped="false" name="vulture-1 48000 1" offline="false" select="false" sourceInPoint="0" sourceOutPoint="18421" startPoint="100763" zOrder="17">
          <component componentGuid="9d09a09c-a907-46dc-8363-6dd64e30bc59" componentID="Audition.Fader" id="clipGain" name="volume" powered="true">
            <parameter index="0" name="volume" parameterValue="1"/>
            <parameter index="1" name="static gain" parameterValue="1"/>
          </component>
          <component componentGuid="42ba5717-c592-4470-a1dd-cc231cba76d3" componentID="Audition.Mute" id="clipMute" name="Mute" powered="true">
            <parameter index="0" parameterValue="0"/>
            <parameter index="1" name="mute" parameterValue="0"/>
          </component>
          <component componentGuid="f21be517-a88c-443a-b4fe-af796d70ac68" componentID="Audition.StereoPanner" id="clipPan" name="StereoPanner" powered="true">
            <parameter index="0" name="Pan" parameterValue="0"/>
          </component>
          <fadeIn crossFadeLinkType="linkedAsymmetric" endPoint="101" shape="19" startPoint="0" type="log"/>
          <fadeOut crossFadeLinkType="linkedAsymmetric" endPoint="18421" shape="0" startPoint="18421" type="cosine"/>
          <editParameter parameterIndex="0" slotIndex="4294967281"/>
          <editParameter parameterIndex="0" slotIndex="4294967280"/>
          <channelMap>
            <channel index="0" sourceIndex="0"/>
          </channelMap>
        </audioClip>
        <audioClip clipAutoCrossfade="true" crossFadeHeadClipID="-1" crossFadeTailClipID="-1" endPoint="137800" fileID="0" hue="-1" id="6" lockedInTime="false" looped="false" name="vulture-1 48000 1" offline="false" select="false" sourceInPoint="0" sourceOutPoint="18421" startPoint="119379" zOrder="18">
          <component componentGuid="cd06b4b6-c5ba-46b8-9028-2f3a78f3437e" componentID="Audition.Fader" id="clipGain" name="volume" powered="true">
            <parameter index="0" name="volume" parameterValue="1"/>
            <parameter index="1" name="static gain" parameterValue="1"/>
          </component>
          <component componentGuid="2038fa51-566c-4314-b7dd-cf4cb5cd82de" componentID="Audition.Mute" id="clipMute" name="Mute" powered="true">
            <parameter index="0" parameterValue="0"/>
            <parameter index="1" name="mute" parameterValue="0"/>
          </component>
          <component componentGuid="d5fe732a-feb7-442c-a2b9-8b5f8c3c3d12" componentID="Audition.StereoPanner" id="clipPan" name="StereoPanner" powered="true">
            <parameter index="0" name="Pan" parameterValue="0"/>
          </component>
          <fadeIn crossFadeLinkType="linkedAsymmetric" endPoint="0" shape="0" startPoint="0" type="cosine"/>
          <fadeOut crossFadeLinkType="linkedAsymmetric" endPoint="18421" shape="0" startPoint="18421" type="cosine"/>
          <editParameter parameterIndex="0" slotIndex="4294967281"/>
          <editParameter parameterIndex="0" slotIndex="4294967280"/>
          <channelMap>
            <channel index="0" sourceIndex="0"/>
          </channelMap>
        </audioClip>
      </audioTrack>
      <audioTrack automationLaneOpenState="false" id="10003" index="3" select="false" visible="true">
        <trackParameters trackHeight="134" trackHue="48.998508453369141" trackMinimized="false">
          <name>Track 3</name>
        </trackParameters>
        <trackAudioParameters audioChannelType="stereo" automationMode="1" monitoring="false" recordArmed="false" solo="false" soloSafe="false">
          <trackOutput outputID="10000" type="trackID"/>
          <trackInput inputID="1"/>
          <component componentGuid="89e4af26-3a8e-49dd-9756-8d7769820c69" componentID="Audition.Fader" id="trackFader" name="volume" powered="true">
            <parameter index="0" name="volume" parameterValue="1"/>
            <parameter index="1" name="static gain" parameterValue="1"/>
          </component>
          <component componentGuid="e06e062b-a851-456b-9352-3d1df8acebf7" componentID="Audition.Mute" id="trackMute" name="Mute" powered="true">
            <parameter index="0" parameterValue="0"/>
            <parameter index="1" name="mute" parameterValue="0"/>
          </component>
          <component componentGuid="162f22f5-3efe-43c0-a59b-39728b170f89" componentID="Audition.StereoPanner" id="trackPan" name="StereoPanner" powered="true">
            <parameter index="0" name="Pan" parameterValue="0"/>
          </component>
          <component componentGuid="42233daa-51bc-4a25-b9ca-4a9145d0e17d" componentID="Audition.EQ" id="trackEQ" name="EQ" powered="false">
            <parameter index="0" name="Low Shelf Frequency" parameterValue="0.000834"/>
            <parameter index="1" name="Low Shelf Gain" parameterValue="0.5"/>
            <parameter index="2" name="High Shelf Frequency" parameterValue="0.7497915"/>
            <parameter index="3" name="High Shelf Gain" parameterValue="0.5"/>
            <parameter index="4" name="EQ Band 1 Center Frequency" parameterValue="0.001251"/>
            <parameter index="5" name="EQ Band 1 Q" parameterValue="0.0002"/>
            <parameter index="6" name="EQ Band 1 Gain" parameterValue="0.5"/>
            <parameter index="7" name="EQ Band 1 Enable" parameterValue="1"/>
            <parameter index="8" name="EQ Band 2 Center Frequency" parameterValue="0.0075063"/>
            <parameter index="9" name="EQ Band 2 Q" parameterValue="0.0002"/>
            <parameter index="10" name="EQ Band 2 Gain" parameterValue="0.5"/>
            <parameter index="11" name="EQ Band 2 Enable" parameterValue="1"/>
            <parameter index="12" name="EQ Band 3 Center Frequency" parameterValue="0.0325271"/>
            <parameter index="13" name="EQ Band 3 Q" parameterValue="0.0002"/>
            <parameter index="14" name="EQ Band 3 Gain" parameterValue="0.5"/>
            <parameter index="15" name="EQ Band 3 Enable" parameterValue="1"/>
            <parameter index="16" name="EQ Band 4 Center Frequency" parameterValue="0.1326105"/>
            <parameter index="17" name="EQ Band 4 Q" parameterValue="0.0002"/>
            <parameter index="18" name="EQ Band 4 Gain" parameterValue="0.5"/>
            <parameter index="19" name="EQ Band 4 Enable" parameterValue="1"/>
            <parameter index="20" name="EQ Band 5 Center Frequency" parameterValue="0.5329441"/>
            <parameter index="21" name="EQ Band 5 Q" parameterValue="0.0002"/>
            <parameter index="22" name="EQ Band 5 Gain" parameterValue="0.5"/>
            <parameter index="23" name="EQ Band 5 Enable" parameterValue="1"/>
            <parameter index="24" name="Master Gain" parameterValue="0.6666667"/>
            <parameter index="25" name="ConstantQ" parameterValue="1"/>
            <parameter index="26" name="Low Shelf Filter Order" parameterValue="0"/>
            <parameter index="27" name="High Shelf Filter Order" parameterValue="0"/>
            <parameter index="28" name="Ultra-Quiet Mode" parameterValue="0"/>
            <parameter index="29" name="Low Shelf Enable" parameterValue="1"/>
            <parameter index="30" name="High Shelf Enable" parameterValue="1"/>
            <parameter index="31" name="Original Sample Rate" parameterValue="0.25"/>
            <parameter index="32" name="EQ Band 1 Bandwidth" parameterValue="0.0025"/>
            <parameter index="33" name="EQ Band 2 Bandwidth" parameterValue="0.01"/>
            <parameter index="34" name="EQ Band 3 Bandwidth" parameterValue="0.04"/>
            <parameter index="35" name="EQ Band 4 Bandwidth" parameterValue="0.16"/>
            <parameter index="36" name="EQ Band 5 Bandwidth" parameterValue="0.64"/>
            <parameter index="37" name="High-Pass Filter Enable" parameterValue="0"/>
            <parameter index="38" name="High-Pass Cutoff Frequency" parameterValue="0"/>
            <parameter index="39" name="High-Pass Slope" parameterValue="4"/>
            <parameter index="40" name="Low-Pass Filter Enable" parameterValue="0"/>
            <parameter index="41" name="Low-Pass Cutoff Frequency" parameterValue="0.8331943"/>
            <parameter index="42" name="Low-Pass Slope" parameterValue="4"/>
            <parameter index="43" name="Bypass" parameterValue="0"/>
            <parameter index="44" name="LowGraphRange" parameterValue="1"/>
          </component>
        </trackAudioParameters>
        <editParameter parameterIndex="0" slotIndex="4294967280"/>
        <sendList>
          <sendSlot preFader="false" sendOutputID="0" slotIndex="0">
            <component componentGuid="6b13a72f-ce59-4bd3-aa0b-75f0812cdfc8" id="sendComponent" powered="false">
              <parameter index="0" name="Power On/Off" parameterValue="0"/>
              <parameter index="1" name="Level" parameterValue="0"/>
            </component>
            <component id="sendPan" powered="true"/>
          </sendSlot>
          <sendSlot preFader="false" sendOutputID="0" slotIndex="1">
            <component componentGuid="9525e72a-cb5b-4a07-a3da-e00f90aca9de" id="sendComponent" powered="false">
              <parameter index="0" name="Power On/Off" parameterValue="0"/>
              <parameter index="1" name="Level" parameterValue="0"/>
            </component>
            <component id="sendPan" powered="true"/>
          </sendSlot>
          <sendSlot preFader="false" sendOutputID="0" slotIndex="2">
            <component componentGuid="89a553e9-571e-48e4-b3fc-ff71ce24d35d" id="sendComponent" powered="false">
              <parameter index="0" name="Power On/Off" parameterValue="0"/>
              <parameter index="1" name="Level" parameterValue="0"/>
            </component>
            <component id="sendPan" powered="true"/>
          </sendSlot>
          <sendSlot preFader="false" sendOutputID="0" slotIndex="3">
            <component componentGuid="19a17d3e-cd5d-4456-9b47-99a0f156e3e5" id="sendComponent" powered="false">
              <parameter index="0" name="Power On/Off" parameterValue="0"/>
              <parameter index="1" name="Level" parameterValue="0"/>
            </component>
            <component id="sendPan" powered="true"/>
          </sendSlot>
          <sendSlot preFader="false" sendOutputID="0" slotIndex="4">
            <component componentGuid="f0d94e26-5c58-4f5f-8d36-958a1a5b1d52" id="sendComponent" powered="false">
              <parameter index="0" name="Power On/Off" parameterValue="0"/>
              <parameter index="1" name="Level" parameterValue="0"/>
            </component>
            <component id="sendPan" powered="true"/>
          </sendSlot>
          <sendSlot preFader="false" sendOutputID="0" slotIndex="5">
            <component componentGuid="6942c4e6-109c-45f9-9277-42cefc87cb3f" id="sendComponent" powered="false">
              <parameter index="0" name="Power On/Off" parameterValue="0"/>
              <parameter index="1" name="Level" parameterValue="0"/>
            </component>
            <component id="sendPan" powered="true"/>
          </sendSlot>
          <sendSlot preFader="false" sendOutputID="0" slotIndex="6">
            <component componentGuid="2332a933-821f-43e2-a273-9fa5f2818c4a" id="sendComponent" powered="false">
              <parameter index="0" name="Power On/Off" parameterValue="0"/>
              <parameter index="1" name="Level" parameterValue="0"/>
            </component>
            <component id="sendPan" powered="true"/>
          </sendSlot>
          <sendSlot preFader="false" sendOutputID="0" slotIndex="7">
            <component componentGuid="f4bb1a87-1ecb-4de8-b4e3-94cb8bff0368" id="sendComponent" powered="false">
              <parameter index="0" name="Power On/Off" parameterValue="0"/>
              <parameter index="1" name="Level" parameterValue="0"/>
            </component>
            <component id="sendPan" powered="true"/>
          </sendSlot>
          <sendSlot preFader="false" sendOutputID="0" slotIndex="8">
            <component componentGuid="f25e47fa-c0c7-4af1-ac72-d9eddac42944" id="sendComponent" powered="false">
              <parameter index="0" name="Power On/Off" parameterValue="0"/>
              <parameter index="1" name="Level" parameterValue="0"/>
            </component>
            <component id="sendPan" powered="true"/>
          </sendSlot>
          <sendSlot preFader="false" sendOutputID="0" slotIndex="9">
            <component componentGuid="b0f17d9d-b88d-45a7-b14a-e8022878c4a2" id="sendComponent" powered="false">
              <parameter index="0" name="Power On/Off" parameterValue="0"/>
              <parameter index="1" name="Level" parameterValue="0"/>
            </component>
            <component id="sendPan" powered="true"/>
          </sendSlot>
          <sendSlot preFader="false" sendOutputID="0" slotIndex="10">
            <component componentGuid="94db2574-5882-43a2-807b-10aa69f0c1a5" id="sendComponent" powered="false">
              <parameter index="0" name="Power On/Off" parameterValue="0"/>
              <parameter index="1" name="Level" parameterValue="0"/>
            </component>
            <component id="sendPan" powered="true"/>
          </sendSlot>
          <sendSlot preFader="false" sendOutputID="0" slotIndex="11">
            <component componentGuid="ae38d70d-6a93-41d0-a57e-68dc5d0112bf" id="sendComponent" powered="false">
              <parameter index="0" name="Power On/Off" parameterValue="0"/>
              <parameter index="1" name="Level" parameterValue="0"/>
            </component>
            <component id="sendPan" powered="true"/>
          </sendSlot>
          <sendSlot preFader="false" sendOutputID="0" slotIndex="12">
            <component componentGuid="f446a464-7ef9-440f-912c-63f2ce916a3e" id="sendComponent" powered="false">
              <parameter index="0" name="Power On/Off" parameterValue="0"/>
              <parameter index="1" name="Level" parameterValue="0"/>
            </component>
            <component id="sendPan" powered="true"/>
          </sendSlot>
          <sendSlot preFader="false" sendOutputID="0" slotIndex="13">
            <component componentGuid="9541e2ff-bba1-4f7a-90f1-737eae372e4c" id="sendComponent" powered="false">
              <parameter index="0" name="Power On/Off" parameterValue="0"/>
              <parameter index="1" name="Level" parameterValue="0"/>
            </component>
            <component id="sendPan" powered="true"/>
          </sendSlot>
          <sendSlot preFader="false" sendOutputID="0" slotIndex="14">
            <component componentGuid="051129bd-b65a-4c4e-b9c9-0a994e34130e" id="sendComponent" powered="false">
              <parameter index="0" name="Power On/Off" parameterValue="0"/>
              <parameter index="1" name="Level" parameterValue="0"/>
            </component>
            <component id="sendPan" powered="true"/>
          </sendSlot>
          <sendSlot preFader="false" sendOutputID="0" slotIndex="15">
            <component componentGuid="95cbe620-832b-443a-ba0d-8a0cd834ab45" id="sendComponent" powered="false">
              <parameter index="0" name="Power On/Off" parameterValue="0"/>
              <parameter index="1" name="Level" parameterValue="0"/>
            </component>
            <component id="sendPan" powered="true"/>
          </sendSlot>
        </sendList>
        <audioClip clipAutoCrossfade="true" crossFadeHeadClipID="-1" crossFadeTailClipID="1" endPoint="18421" fileID="0" hue="-1" id="0" lockedInTime="false" looped="false" name="vulture-1 48000 1" offline="false" select="true" sourceInPoint="0" sourceOutPoint="18421" startPoint="0" zOrder="20">
          <component componentGuid="8b4e91fe-c587-4203-abdf-3397acb19f7f" componentID="Audition.Fader" id="clipGain" name="volume" powered="true">
            <parameter index="0" name="volume" parameterValue="1"/>
            <parameter index="1" name="static gain" parameterValue="1"/>
          </component>
          <component componentGuid="81256214-4988-45ba-8c2d-5673380184be" componentID="Audition.Mute" id="clipMute" name="Mute" powered="true">
            <parameter index="0" parameterValue="0"/>
            <parameter index="1" name="mute" parameterValue="0"/>
          </component>
          <component componentGuid="d8a60428-626e-4954-b4c5-7494b6b2e709" componentID="Audition.StereoPanner" id="clipPan" name="StereoPanner" powered="true">
            <parameter index="0" name="Pan" parameterValue="0"/>
          </component>
          <fadeIn crossFadeLinkType="linkedAsymmetric" endPoint="0" shape="19" startPoint="0" type="log"/>
          <fadeOut crossFadeLinkType="linkedAsymmetric" endPoint="18421" shape="19" startPoint="18420" type="log"/>
          <editParameter parameterIndex="0" slotIndex="4294967281"/>
          <editParameter parameterIndex="0" slotIndex="4294967280"/>
          <channelMap>
            <channel index="0" sourceIndex="0"/>
          </channelMap>
        </audioClip>
        <audioClip clipAutoCrossfade="true" crossFadeHeadClipID="0" crossFadeTailClipID="-1" endPoint="36841" fileID="0" hue="-1" id="1" lockedInTime="false" looped="false" name="vulture-1 48000 1" offline="false" select="false" sourceInPoint="0" sourceOutPoint="18421" startPoint="18420" zOrder="0">
          <component componentGuid="89a4113c-d286-45ee-9009-76f0b9b86bd0" componentID="Audition.Fader" id="clipGain" name="volume" powered="true">
            <parameter index="0" name="volume" parameterValue="1"/>
            <parameter index="1" name="static gain" parameterValue="1"/>
          </component>
          <component componentGuid="54ec7d62-ae7c-493a-a4fd-49125810e50b" componentID="Audition.Mute" id="clipMute" name="Mute" powered="true">
            <parameter index="0" parameterValue="0"/>
            <parameter index="1" name="mute" parameterValue="0"/>
          </component>
          <component componentGuid="d16a6b84-c52b-4a8d-9522-5bd5a9c647b2" componentID="Audition.StereoPanner" id="clipPan" name="StereoPanner" powered="true">
            <parameter index="0" name="Pan" parameterValue="0"/>
          </component>
          <fadeIn crossFadeLinkType="linkedAsymmetric" endPoint="1" shape="18" startPoint="0" type="log"/>
          <fadeOut crossFadeLinkType="linkedAsymmetric" endPoint="18421" shape="0" startPoint="18421" type="cosine"/>
          <editParameter parameterIndex="0" slotIndex="4294967281"/>
          <editParameter parameterIndex="0" slotIndex="4294967280"/>
          <channelMap>
            <channel index="0" sourceIndex="0"/>
          </channelMap>
        </audioClip>
        <audioClip clipAutoCrossfade="true" crossFadeHeadClipID="-1" crossFadeTailClipID="-1" endPoint="55262" fileID="0" hue="-1" id="2" lockedInTime="false" looped="false" name="vulture-1 48000 1" offline="false" select="false" sourceInPoint="0" sourceOutPoint="18421" startPoint="36841" zOrder="1">
          <component componentGuid="ab1fcc41-3333-4cd9-969a-9d10c9a9c18a" componentID="Audition.Fader" id="clipGain" name="volume" powered="true">
            <parameter index="0" name="volume" parameterValue="1"/>
            <parameter index="1" name="static gain" parameterValue="1"/>
          </component>
          <component componentGuid="719d79b1-9a25-4254-882d-512cb84775e4" componentID="Audition.Mute" id="clipMute" name="Mute" powered="true">
            <parameter index="0" parameterValue="0"/>
            <parameter index="1" name="mute" parameterValue="0"/>
          </component>
          <component componentGuid="68074049-6da4-49c2-a4f6-f1d0f232bdcd" componentID="Audition.StereoPanner" id="clipPan" name="StereoPanner" powered="true">
            <parameter index="0" name="Pan" parameterValue="0"/>
          </component>
          <fadeIn crossFadeLinkType="linkedAsymmetric" endPoint="0" shape="0" startPoint="0" type="cosine"/>
          <fadeOut crossFadeLinkType="linkedAsymmetric" endPoint="18421" shape="0" startPoint="18421" type="cosine"/>
          <editParameter parameterIndex="0" slotIndex="4294967281"/>
          <editParameter parameterIndex="0" slotIndex="4294967280"/>
          <channelMap>
            <channel index="0" sourceIndex="0"/>
          </channelMap>
        </audioClip>
        <audioClip clipAutoCrossfade="true" crossFadeHeadClipID="-1" crossFadeTailClipID="-1" endPoint="73974" fileID="0" hue="-1" id="3" lockedInTime="false" looped="false" name="vulture-1 48000 1" offline="false" select="false" sourceInPoint="0" sourceOutPoint="18421" startPoint="55553" zOrder="2">
          <component componentGuid="cfe556b4-eb9d-49b0-a0b5-66db80e702cb" componentID="Audition.Fader" id="clipGain" name="volume" powered="true">
            <parameter index="0" name="volume" parameterValue="1"/>
            <parameter index="1" name="static gain" parameterValue="1"/>
          </component>
          <component componentGuid="7909511e-609b-4613-93b2-fa47d94abe9e" componentID="Audition.Mute" id="clipMute" name="Mute" powered="true">
            <parameter index="0" parameterValue="0"/>
            <parameter index="1" name="mute" parameterValue="0"/>
          </component>
          <component componentGuid="76768016-b55b-4a2d-bb75-f11debc7f241" componentID="Audition.StereoPanner" id="clipPan" name="StereoPanner" powered="true">
            <parameter index="0" name="Pan" parameterValue="0"/>
          </component>
          <fadeIn crossFadeLinkType="linkedAsymmetric" endPoint="0" shape="0" startPoint="0" type="cosine"/>
          <fadeOut crossFadeLinkType="linkedAsymmetric" endPoint="18421" shape="0" startPoint="18421" type="cosine"/>
          <editParameter parameterIndex="0" slotIndex="4294967281"/>
          <editParameter parameterIndex="0" slotIndex="4294967280"/>
          <channelMap>
            <channel index="0" sourceIndex="0"/>
          </channelMap>
        </audioClip>
        <audioClip clipAutoCrossfade="true" crossFadeHeadClipID="-1" crossFadeTailClipID="5" endPoint="92590" fileID="0" hue="-1" id="4" lockedInTime="false" looped="false" name="vulture-1 48000 1" offline="false" select="false" sourceInPoint="0" sourceOutPoint="18421" startPoint="74169" zOrder="3">
          <component componentGuid="e48aafa4-9ba9-44fb-b916-dbd86dfeebc7" componentID="Audition.Fader" id="clipGain" name="volume" powered="true">
            <parameter index="0" name="volume" parameterValue="1"/>
            <parameter index="1" name="static gain" parameterValue="1"/>
          </component>
          <component componentGuid="cf4c03e8-4121-42f2-abca-6795760b6177" componentID="Audition.Mute" id="clipMute" name="Mute" powered="true">
            <parameter index="0" parameterValue="0"/>
            <parameter index="1" name="mute" parameterValue="0"/>
          </component>
          <component componentGuid="db765cbc-57ba-43cc-84de-18a92cb55065" componentID="Audition.StereoPanner" id="clipPan" name="StereoPanner" powered="true">
            <parameter index="0" name="Pan" parameterValue="0"/>
          </component>
          <fadeIn crossFadeLinkType="linkedAsymmetric" endPoint="0" shape="0" startPoint="0" type="cosine"/>
          <fadeOut crossFadeLinkType="linkedAsymmetric" endPoint="18421" shape="18" startPoint="18320" type="log"/>
          <editParameter parameterIndex="0" slotIndex="4294967281"/>
          <editParameter parameterIndex="0" slotIndex="4294967280"/>
          <channelMap>
            <channel index="0" sourceIndex="0"/>
          </channelMap>
        </audioClip>
        <audioClip clipAutoCrossfade="true" crossFadeHeadClipID="4" crossFadeTailClipID="6" endPoint="110910" fileID="0" hue="-1" id="5" lockedInTime="false" looped="false" name="vulture-1 48000 1" offline="false" select="false" sourceInPoint="0" sourceOutPoint="18421" startPoint="92489" zOrder="4">
          <component componentGuid="a8d5b491-fe1c-4e43-ad6c-34ec1befe4dd" componentID="Audition.Fader" id="clipGain" name="volume" powered="true">
            <parameter index="0" name="volume" parameterValue="1"/>
            <parameter index="1" name="static gain" parameterValue="1"/>
          </component>
          <component componentGuid="87747f6a-be6d-49bf-8eba-352597a9ce05" componentID="Audition.Mute" id="clipMute" name="Mute" powered="true">
            <parameter index="0" parameterValue="0"/>
            <parameter index="1" name="mute" parameterValue="0"/>
          </component>
          <component componentGuid="d18752fc-1dfa-440e-a622-47b70c5c0fbf" componentID="Audition.StereoPanner" id="clipPan" name="StereoPanner" powered="true">
            <parameter index="0" name="Pan" parameterValue="0"/>
          </component>
          <fadeIn crossFadeLinkType="linkedAsymmetric" endPoint="101" shape="19" startPoint="0" type="log"/>
          <fadeOut crossFadeLinkType="linkedAsymmetric" endPoint="18421" shape="18" startPoint="18321" type="log"/>
          <editParameter parameterIndex="0" slotIndex="4294967281"/>
          <editParameter parameterIndex="0" slotIndex="4294967280"/>
          <channelMap>
            <channel index="0" sourceIndex="0"/>
          </channelMap>
        </audioClip>
        <audioClip clipAutoCrossfade="true" crossFadeHeadClipID="5" crossFadeTailClipID="7" endPoint="129231" fileID="0" hue="-1" id="6" lockedInTime="false" looped="false" name="vulture-1 48000 1" offline="false" select="false" sourceInPoint="0" sourceOutPoint="18421" startPoint="110810" zOrder="5">
          <component componentGuid="8283eea8-4ed2-4132-8a79-7aa29f89fb1c" componentID="Audition.Fader" id="clipGain" name="volume" powered="true">
            <parameter index="0" name="volume" parameterValue="1"/>
            <parameter index="1" name="static gain" parameterValue="1"/>
          </component>
          <component componentGuid="af7360a6-60ba-466b-85c1-041fb0d6c5d7" componentID="Audition.Mute" id="clipMute" name="Mute" powered="true">
            <parameter index="0" parameterValue="0"/>
            <parameter index="1" name="mute" parameterValue="0"/>
          </component>
          <component componentGuid="1198f442-ad1d-45da-8faf-db380f4e81b6" componentID="Audition.StereoPanner" id="clipPan" name="StereoPanner" powered="true">
            <parameter index="0" name="Pan" parameterValue="0"/>
          </component>
          <fadeIn crossFadeLinkType="linkedAsymmetric" endPoint="100" shape="19" startPoint="0" type="log"/>
          <fadeOut crossFadeLinkType="linkedAsymmetric" endPoint="18421" shape="18" startPoint="18025" type="log"/>
          <editParameter parameterIndex="0" slotIndex="4294967281"/>
          <editParameter parameterIndex="0" slotIndex="4294967280"/>
          <channelMap>
            <channel index="0" sourceIndex="0"/>
          </channelMap>
        </audioClip>
        <audioClip clipAutoCrossfade="true" crossFadeHeadClipID="6" crossFadeTailClipID="-1" endPoint="147256" fileID="0" hue="-1" id="7" lockedInTime="false" looped="false" name="vulture-1 48000 1" offline="false" select="false" sourceInPoint="0" sourceOutPoint="18421" startPoint="128835" zOrder="6">
          <component componentGuid="fb6a363b-a9ad-423f-9026-e20a7d434b2e" componentID="Audition.Fader" id="clipGain" name="volume" powered="true">
            <parameter index="0" name="volume" parameterValue="1"/>
            <parameter index="1" name="static gain" parameterValue="1"/>
          </component>
          <component componentGuid="6327ade3-709b-4d0b-96e6-11093a835066" componentID="Audition.Mute" id="clipMute" name="Mute" powered="true">
            <parameter index="0" parameterValue="0"/>
            <parameter index="1" name="mute" parameterValue="0"/>
          </component>
          <component componentGuid="f0233274-85de-4522-b806-9b90cece6119" componentID="Audition.StereoPanner" id="clipPan" name="StereoPanner" powered="true">
            <parameter index="0" name="Pan" parameterValue="0"/>
          </component>
          <fadeIn crossFadeLinkType="linkedAsymmetric" endPoint="396" shape="19" startPoint="0" type="log"/>
          <fadeOut crossFadeLinkType="linkedAsymmetric" endPoint="18421" shape="18" startPoint="18421" type="log"/>
          <editParameter parameterIndex="0" slotIndex="4294967281"/>
          <editParameter parameterIndex="0" slotIndex="4294967280"/>
          <channelMap>
            <channel index="0" sourceIndex="0"/>
          </channelMap>
        </audioClip>
      </audioTrack>
      <audioTrack automationLaneOpenState="false" id="10004" index="4" select="false" visible="true">
        <trackParameters trackHeight="134" trackHue="173.00840377807617" trackMinimized="false">
          <name>Track 4</name>
        </trackParameters>
        <trackAudioParameters audioChannelType="stereo" automationMode="1" monitoring="false" recordArmed="false" solo="false" soloSafe="false">
          <trackOutput outputID="10000" type="trackID"/>
          <trackInput inputID="1"/>
          <component componentGuid="8837b808-03b8-4dde-8967-69c5026d7c14" componentID="Audition.Fader" id="trackFader" name="volume" powered="true">
            <parameter index="0" name="volume" parameterValue="1"/>
            <parameter index="1" name="static gain" parameterValue="1"/>
          </component>
          <component componentGuid="ecf757aa-6cae-4cad-a576-085ea3c4cd49" componentID="Audition.Mute" id="trackMute" name="Mute" powered="true">
            <parameter index="0" parameterValue="0"/>
            <parameter index="1" name="mute" parameterValue="0"/>
          </component>
          <component componentGuid="c985bdfa-593c-46c0-ac98-67f88da4f4c9" componentID="Audition.StereoPanner" id="trackPan" name="StereoPanner" powered="true">
            <parameter index="0" name="Pan" parameterValue="0"/>
          </component>
          <component componentGuid="2d25dc42-6235-41e4-84b1-1cbe1b56ac04" componentID="Audition.EQ" id="trackEQ" name="EQ" powered="false">
            <parameter index="0" name="Low Shelf Frequency" parameterValue="0.000834"/>
            <parameter index="1" name="Low Shelf Gain" parameterValue="0.5"/>
            <parameter index="2" name="High Shelf Frequency" parameterValue="0.7497915"/>
            <parameter index="3" name="High Shelf Gain" parameterValue="0.5"/>
            <parameter index="4" name="EQ Band 1 Center Frequency" parameterValue="0.001251"/>
            <parameter index="5" name="EQ Band 1 Q" parameterValue="0.0002"/>
            <parameter index="6" name="EQ Band 1 Gain" parameterValue="0.5"/>
            <parameter index="7" name="EQ Band 1 Enable" parameterValue="1"/>
            <parameter index="8" name="EQ Band 2 Center Frequency" parameterValue="0.0075063"/>
            <parameter index="9" name="EQ Band 2 Q" parameterValue="0.0002"/>
            <parameter index="10" name="EQ Band 2 Gain" parameterValue="0.5"/>
            <parameter index="11" name="EQ Band 2 Enable" parameterValue="1"/>
            <parameter index="12" name="EQ Band 3 Center Frequency" parameterValue="0.0325271"/>
            <parameter index="13" name="EQ Band 3 Q" parameterValue="0.0002"/>
            <parameter index="14" name="EQ Band 3 Gain" parameterValue="0.5"/>
            <parameter index="15" name="EQ Band 3 Enable" parameterValue="1"/>
            <parameter index="16" name="EQ Band 4 Center Frequency" parameterValue="0.1326105"/>
            <parameter index="17" name="EQ Band 4 Q" parameterValue="0.0002"/>
            <parameter index="18" name="EQ Band 4 Gain" parameterValue="0.5"/>
            <parameter index="19" name="EQ Band 4 Enable" parameterValue="1"/>
            <parameter index="20" name="EQ Band 5 Center Frequency" parameterValue="0.5329441"/>
            <parameter index="21" name="EQ Band 5 Q" parameterValue="0.0002"/>
            <parameter index="22" name="EQ Band 5 Gain" parameterValue="0.5"/>
            <parameter index="23" name="EQ Band 5 Enable" parameterValue="1"/>
            <parameter index="24" name="Master Gain" parameterValue="0.6666667"/>
            <parameter index="25" name="ConstantQ" parameterValue="1"/>
            <parameter index="26" name="Low Shelf Filter Order" parameterValue="0"/>
            <parameter index="27" name="High Shelf Filter Order" parameterValue="0"/>
            <parameter index="28" name="Ultra-Quiet Mode" parameterValue="0"/>
            <parameter index="29" name="Low Shelf Enable" parameterValue="1"/>
            <parameter index="30" name="High Shelf Enable" parameterValue="1"/>
            <parameter index="31" name="Original Sample Rate" parameterValue="0.25"/>
            <parameter index="32" name="EQ Band 1 Bandwidth" parameterValue="0.0025"/>
            <parameter index="33" name="EQ Band 2 Bandwidth" parameterValue="0.01"/>
            <parameter index="34" name="EQ Band 3 Bandwidth" parameterValue="0.04"/>
            <parameter index="35" name="EQ Band 4 Bandwidth" parameterValue="0.16"/>
            <parameter index="36" name="EQ Band 5 Bandwidth" parameterValue="0.64"/>
            <parameter index="37" name="High-Pass Filter Enable" parameterValue="0"/>
            <parameter index="38" name="High-Pass Cutoff Frequency" parameterValue="0"/>
            <parameter index="39" name="High-Pass Slope" parameterValue="4"/>
            <parameter index="40" name="Low-Pass Filter Enable" parameterValue="0"/>
            <parameter index="41" name="Low-Pass Cutoff Frequency" parameterValue="0.8331943"/>
            <parameter index="42" name="Low-Pass Slope" parameterValue="4"/>
            <parameter index="43" name="Bypass" parameterValue="0"/>
            <parameter index="44" name="LowGraphRange" parameterValue="1"/>
          </component>
        </trackAudioParameters>
        <editParameter parameterIndex="0" slotIndex="4294967280"/>
        <sendList>
          <sendSlot preFader="false" sendOutputID="0" slotIndex="0">
            <component componentGuid="f507a9df-9b9b-4887-a189-4a88d6d199a0" id="sendComponent" powered="false">
              <parameter index="0" name="Power On/Off" parameterValue="0"/>
              <parameter index="1" name="Level" parameterValue="0"/>
            </component>
            <component id="sendPan" powered="true"/>
          </sendSlot>
          <sendSlot preFader="false" sendOutputID="0" slotIndex="1">
            <component componentGuid="3e15c6f5-278f-4414-b23e-c93c8f45c7d7" id="sendComponent" powered="false">
              <parameter index="0" name="Power On/Off" parameterValue="0"/>
              <parameter index="1" name="Level" parameterValue="0"/>
            </component>
            <component id="sendPan" powered="true"/>
          </sendSlot>
          <sendSlot preFader="false" sendOutputID="0" slotIndex="2">
            <component componentGuid="3aab4dbf-00f3-42db-8538-5dc92b59a41e" id="sendComponent" powered="false">
              <parameter index="0" name="Power On/Off" parameterValue="0"/>
              <parameter index="1" name="Level" parameterValue="0"/>
            </component>
            <component id="sendPan" powered="true"/>
          </sendSlot>
          <sendSlot preFader="false" sendOutputID="0" slotIndex="3">
            <component componentGuid="74d98c95-b539-41b7-bc9b-040b054ac02f" id="sendComponent" powered="false">
              <parameter index="0" name="Power On/Off" parameterValue="0"/>
              <parameter index="1" name="Level" parameterValue="0"/>
            </component>
            <component id="sendPan" powered="true"/>
          </sendSlot>
          <sendSlot preFader="false" sendOutputID="0" slotIndex="4">
            <component componentGuid="d7d0e134-5abf-452e-95c2-4985e35f079d" id="sendComponent" powered="false">
              <parameter index="0" name="Power On/Off" parameterValue="0"/>
              <parameter index="1" name="Level" parameterValue="0"/>
            </component>
            <component id="sendPan" powered="true"/>
          </sendSlot>
          <sendSlot preFader="false" sendOutputID="0" slotIndex="5">
            <component componentGuid="04dbc58f-ada9-43ac-a255-42223ddd2c96" id="sendComponent" powered="false">
              <parameter index="0" name="Power On/Off" parameterValue="0"/>
              <parameter index="1" name="Level" parameterValue="0"/>
            </component>
            <component id="sendPan" powered="true"/>
          </sendSlot>
          <sendSlot preFader="false" sendOutputID="0" slotIndex="6">
            <component componentGuid="d64639a7-e88f-409b-95df-402f43960d04" id="sendComponent" powered="false">
              <parameter index="0" name="Power On/Off" parameterValue="0"/>
              <parameter index="1" name="Level" parameterValue="0"/>
            </component>
            <component id="sendPan" powered="true"/>
          </sendSlot>
          <sendSlot preFader="false" sendOutputID="0" slotIndex="7">
            <component componentGuid="7e7de3ba-8fd1-4e63-aea6-36869dde082e" id="sendComponent" powered="false">
              <parameter index="0" name="Power On/Off" parameterValue="0"/>
              <parameter index="1" name="Level" parameterValue="0"/>
            </component>
            <component id="sendPan" powered="true"/>
          </sendSlot>
          <sendSlot preFader="false" sendOutputID="0" slotIndex="8">
            <component componentGuid="13202f0d-e6b5-4440-9cce-4a7510b6d879" id="sendComponent" powered="false">
              <parameter index="0" name="Power On/Off" parameterValue="0"/>
              <parameter index="1" name="Level" parameterValue="0"/>
            </component>
            <component id="sendPan" powered="true"/>
          </sendSlot>
          <sendSlot preFader="false" sendOutputID="0" slotIndex="9">
            <component componentGuid="f8899819-fb19-4547-83e7-dcdd7ac43705" id="sendComponent" powered="false">
              <parameter index="0" name="Power On/Off" parameterValue="0"/>
              <parameter index="1" name="Level" parameterValue="0"/>
            </component>
            <component id="sendPan" powered="true"/>
          </sendSlot>
          <sendSlot preFader="false" sendOutputID="0" slotIndex="10">
            <component componentGuid="73cc1c8a-9e49-4ecd-b4b6-c0b0747aa5e9" id="sendComponent" powered="false">
              <parameter index="0" name="Power On/Off" parameterValue="0"/>
              <parameter index="1" name="Level" parameterValue="0"/>
            </component>
            <component id="sendPan" powered="true"/>
          </sendSlot>
          <sendSlot preFader="false" sendOutputID="0" slotIndex="11">
            <component componentGuid="8a72cb70-4fd6-43be-8424-0790674ec541" id="sendComponent" powered="false">
              <parameter index="0" name="Power On/Off" parameterValue="0"/>
              <parameter index="1" name="Level" parameterValue="0"/>
            </component>
            <component id="sendPan" powered="true"/>
          </sendSlot>
          <sendSlot preFader="false" sendOutputID="0" slotIndex="12">
            <component componentGuid="6e75f71f-4ed5-456e-be6f-e07121181bd0" id="sendComponent" powered="false">
              <parameter index="0" name="Power On/Off" parameterValue="0"/>
              <parameter index="1" name="Level" parameterValue="0"/>
            </component>
            <component id="sendPan" powered="true"/>
          </sendSlot>
          <sendSlot preFader="false" sendOutputID="0" slotIndex="13">
            <component componentGuid="f5c4408c-928f-4f5d-8181-3ebbe17d05ea" id="sendComponent" powered="false">
              <parameter index="0" name="Power On/Off" parameterValue="0"/>
              <parameter index="1" name="Level" parameterValue="0"/>
            </component>
            <component id="sendPan" powered="true"/>
          </sendSlot>
          <sendSlot preFader="false" sendOutputID="0" slotIndex="14">
            <component componentGuid="1efb9610-157f-4115-b227-d614f2f762fa" id="sendComponent" powered="false">
              <parameter index="0" name="Power On/Off" parameterValue="0"/>
              <parameter index="1" name="Level" parameterValue="0"/>
            </component>
            <component id="sendPan" powered="true"/>
          </sendSlot>
          <sendSlot preFader="false" sendOutputID="0" slotIndex="15">
            <component componentGuid="f9ba976b-f8be-4cc2-b4e6-7c4f88d7632f" id="sendComponent" powered="false">
              <parameter index="0" name="Power On/Off" parameterValue="0"/>
              <parameter index="1" name="Level" parameterValue="0"/>
            </component>
            <component id="sendPan" powered="true"/>
          </sendSlot>
        </sendList>
        <audioClip clipAutoCrossfade="true" crossFadeHeadClipID="-1" crossFadeTailClipID="-1" endPoint="27029" fileID="0" hue="-1" id="0" lockedInTime="false" looped="false" name="vulture-1 48000 1" offline="false" select="false" sourceInPoint="0" sourceOutPoint="18421" startPoint="8608" zOrder="19">
          <component componentGuid="ebac4922-6a3d-4b10-a454-9c0f49a4bf16" componentID="Audition.Fader" id="clipGain" name="volume" powered="true">
            <parameter index="0" name="volume" parameterValue="1"/>
            <parameter index="1" name="static gain" parameterValue="1"/>
          </component>
          <component componentGuid="030fc8f5-9ca1-4402-ac3a-d8287e4f9453" componentID="Audition.Mute" id="clipMute" name="Mute" powered="true">
            <parameter index="0" parameterValue="0"/>
            <parameter index="1" name="mute" parameterValue="0"/>
          </component>
          <component componentGuid="b1f09c12-eb84-4e97-bc49-8b1c47ea6b72" componentID="Audition.StereoPanner" id="clipPan" name="StereoPanner" powered="true">
            <parameter index="0" name="Pan" parameterValue="0"/>
          </component>
          <fadeIn crossFadeLinkType="linkedAsymmetric" endPoint="0" shape="0" startPoint="0" type="cosine"/>
          <fadeOut crossFadeLinkType="linkedAsymmetric" endPoint="18421" shape="0" startPoint="18421" type="cosine"/>
          <editParameter parameterIndex="0" slotIndex="4294967281"/>
          <editParameter parameterIndex="0" slotIndex="4294967280"/>
          <channelMap>
            <channel index="0" sourceIndex="0"/>
          </channelMap>
        </audioClip>
        <audioClip clipAutoCrossfade="true" crossFadeHeadClipID="-1" crossFadeTailClipID="-1" endPoint="45450" fileID="0" hue="-1" id="1" lockedInTime="false" looped="false" name="vulture-1 48000 1" offline="false" select="false" sourceInPoint="0" sourceOutPoint="18421" startPoint="27029" zOrder="0">
          <component componentGuid="5ce5f2c9-21e6-499d-92fc-834ebb403587" componentID="Audition.Fader" id="clipGain" name="volume" powered="true">
            <parameter index="0" name="volume" parameterValue="1"/>
            <parameter index="1" name="static gain" parameterValue="1"/>
          </component>
          <component componentGuid="7aa4c231-3b3d-4efc-a4c6-80e8e3876740" componentID="Audition.Mute" id="clipMute" name="Mute" powered="true">
            <parameter index="0" parameterValue="0"/>
            <parameter index="1" name="mute" parameterValue="0"/>
          </component>
          <component componentGuid="a8c66851-8a8b-4009-acfb-f4bf5e19eafe" componentID="Audition.StereoPanner" id="clipPan" name="StereoPanner" powered="true">
            <parameter index="0" name="Pan" parameterValue="0"/>
          </component>
          <fadeIn crossFadeLinkType="linkedAsymmetric" endPoint="0" shape="0" startPoint="0" type="cosine"/>
          <fadeOut crossFadeLinkType="linkedAsymmetric" endPoint="18421" shape="0" startPoint="18421" type="cosine"/>
          <editParameter parameterIndex="0" slotIndex="4294967281"/>
          <editParameter parameterIndex="0" slotIndex="4294967280"/>
          <channelMap>
            <channel index="0" sourceIndex="0"/>
          </channelMap>
        </audioClip>
        <audioClip clipAutoCrossfade="true" crossFadeHeadClipID="-1" crossFadeTailClipID="3" endPoint="63871" fileID="0" hue="-1" id="2" lockedInTime="false" looped="false" name="vulture-1 48000 1" offline="false" select="false" sourceInPoint="0" sourceOutPoint="18421" startPoint="45450" zOrder="1">
          <component componentGuid="3d16e7d6-b9a8-4c4d-8711-95f6fb3a7128" componentID="Audition.Fader" id="clipGain" name="volume" powered="true">
            <parameter index="0" name="volume" parameterValue="1"/>
            <parameter index="1" name="static gain" parameterValue="1"/>
          </component>
          <component componentGuid="58ebffcb-8100-4ade-b7ae-14c8fbe5622d" componentID="Audition.Mute" id="clipMute" name="Mute" powered="true">
            <parameter index="0" parameterValue="0"/>
            <parameter index="1" name="mute" parameterValue="0"/>
          </component>
          <component componentGuid="d495c902-d3e8-491d-9b11-922ea59156cb" componentID="Audition.StereoPanner" id="clipPan" name="StereoPanner" powered="true">
            <parameter index="0" name="Pan" parameterValue="0"/>
          </component>
          <fadeIn crossFadeLinkType="linkedAsymmetric" endPoint="0" shape="0" startPoint="0" type="cosine"/>
          <fadeOut crossFadeLinkType="linkedAsymmetric" endPoint="18421" shape="18" startPoint="18377" type="log"/>
          <editParameter parameterIndex="0" slotIndex="4294967281"/>
          <editParameter parameterIndex="0" slotIndex="4294967280"/>
          <channelMap>
            <channel index="0" sourceIndex="0"/>
          </channelMap>
        </audioClip>
        <audioClip clipAutoCrossfade="true" crossFadeHeadClipID="2" crossFadeTailClipID="4" endPoint="82248" fileID="0" hue="-1" id="3" lockedInTime="false" looped="false" name="vulture-1 48000 1" offline="false" select="false" sourceInPoint="0" sourceOutPoint="18421" startPoint="63827" zOrder="2">
          <component componentGuid="e07cab49-2937-49b9-afca-d9f6ce8d6fab" componentID="Audition.Fader" id="clipGain" name="volume" powered="true">
            <parameter index="0" name="volume" parameterValue="1"/>
            <parameter index="1" name="static gain" parameterValue="1"/>
          </component>
          <component componentGuid="91d614f6-c7f0-4ec9-aaa9-45d082a6f437" componentID="Audition.Mute" id="clipMute" name="Mute" powered="true">
            <parameter index="0" parameterValue="0"/>
            <parameter index="1" name="mute" parameterValue="0"/>
          </component>
          <component componentGuid="8c92d4a2-274c-4083-931f-6e845009e123" componentID="Audition.StereoPanner" id="clipPan" name="StereoPanner" powered="true">
            <parameter index="0" name="Pan" parameterValue="0"/>
          </component>
          <fadeIn crossFadeLinkType="linkedAsymmetric" endPoint="44" shape="19" startPoint="0" type="log"/>
          <fadeOut crossFadeLinkType="linkedAsymmetric" endPoint="18421" shape="18" startPoint="18025" type="log"/>
          <editParameter parameterIndex="0" slotIndex="4294967281"/>
          <editParameter parameterIndex="0" slotIndex="4294967280"/>
          <channelMap>
            <channel index="0" sourceIndex="0"/>
          </channelMap>
        </audioClip>
        <audioClip clipAutoCrossfade="true" crossFadeHeadClipID="3" crossFadeTailClipID="5" endPoint="100273" fileID="0" hue="-1" id="4" lockedInTime="false" looped="false" name="vulture-1 48000 1" offline="false" select="false" sourceInPoint="0" sourceOutPoint="18421" startPoint="81852" zOrder="3">
          <component componentGuid="d7e78450-71da-4915-a2a7-dfb5043ca5c2" componentID="Audition.Fader" id="clipGain" name="volume" powered="true">
            <parameter index="0" name="volume" parameterValue="1"/>
            <parameter index="1" name="static gain" parameterValue="1"/>
          </component>
          <component componentGuid="e18d4b04-1aba-4aa9-9c08-8aeddfd2e563" componentID="Audition.Mute" id="clipMute" name="Mute" powered="true">
            <parameter index="0" parameterValue="0"/>
            <parameter index="1" name="mute" parameterValue="0"/>
          </component>
          <component componentGuid="e74dadb3-4b3a-4065-819e-c27b992aa26c" componentID="Audition.StereoPanner" id="clipPan" name="StereoPanner" powered="true">
            <parameter index="0" name="Pan" parameterValue="0"/>
          </component>
          <fadeIn crossFadeLinkType="linkedAsymmetric" endPoint="396" shape="19" startPoint="0" type="log"/>
          <fadeOut crossFadeLinkType="linkedAsymmetric" endPoint="18421" shape="18" startPoint="18320" type="log"/>
          <editParameter parameterIndex="0" slotIndex="4294967281"/>
          <editParameter parameterIndex="0" slotIndex="4294967280"/>
          <channelMap>
            <channel index="0" sourceIndex="0"/>
          </channelMap>
        </audioClip>
        <audioClip clipAutoCrossfade="true" crossFadeHeadClipID="4" crossFadeTailClipID="-1" endPoint="118593" fileID="0" hue="-1" id="5" lockedInTime="false" looped="false" name="vulture-1 48000 1" offline="false" select="false" sourceInPoint="0" sourceOutPoint="18421" startPoint="100172" zOrder="4">
          <component componentGuid="81092341-2402-40c4-9d8a-3fa23953bf19" componentID="Audition.Fader" id="clipGain" name="volume" powered="true">
            <parameter index="0" name="volume" parameterValue="1"/>
            <parameter index="1" name="static gain" parameterValue="1"/>
          </component>
          <component componentGuid="75c42cad-030d-4c23-a097-532748f2cf3a" componentID="Audition.Mute" id="clipMute" name="Mute" powered="true">
            <parameter index="0" parameterValue="0"/>
            <parameter index="1" name="mute" parameterValue="0"/>
          </component>
          <component componentGuid="0e6ab44c-eb0d-4a47-a21b-a368dad53ff7" componentID="Audition.StereoPanner" id="clipPan" name="StereoPanner" powered="true">
            <parameter index="0" name="Pan" parameterValue="0"/>
          </component>
          <fadeIn crossFadeLinkType="linkedAsymmetric" endPoint="101" shape="19" startPoint="0" type="log"/>
          <fadeOut crossFadeLinkType="linkedAsymmetric" endPoint="18421" shape="0" startPoint="18421" type="cosine"/>
          <editParameter parameterIndex="0" slotIndex="4294967281"/>
          <editParameter parameterIndex="0" slotIndex="4294967280"/>
          <channelMap>
            <channel index="0" sourceIndex="0"/>
          </channelMap>
        </audioClip>
        <audioClip clipAutoCrossfade="true" crossFadeHeadClipID="-1" crossFadeTailClipID="-1" endPoint="137505" fileID="0" hue="-1" id="6" lockedInTime="false" looped="false" name="vulture-1 48000 1" offline="false" select="false" sourceInPoint="0" sourceOutPoint="18421" startPoint="119084" zOrder="5">
          <component componentGuid="26dcd1d4-12b7-4e87-85cf-9f45e30e82c6" componentID="Audition.Fader" id="clipGain" name="volume" powered="true">
            <parameter index="0" name="volume" parameterValue="1"/>
            <parameter index="1" name="static gain" parameterValue="1"/>
          </component>
          <component componentGuid="26444463-41dd-46ef-ab2f-ca4014cc98eb" componentID="Audition.Mute" id="clipMute" name="Mute" powered="true">
            <parameter index="0" parameterValue="0"/>
            <parameter index="1" name="mute" parameterValue="0"/>
          </component>
          <component componentGuid="f0bcc0a9-c53c-43f8-822a-ed66457ebb07" componentID="Audition.StereoPanner" id="clipPan" name="StereoPanner" powered="true">
            <parameter index="0" name="Pan" parameterValue="0"/>
          </component>
          <fadeIn crossFadeLinkType="linkedAsymmetric" endPoint="0" shape="0" startPoint="0" type="cosine"/>
          <fadeOut crossFadeLinkType="linkedAsymmetric" endPoint="18421" shape="0" startPoint="18421" type="cosine"/>
          <editParameter parameterIndex="0" slotIndex="4294967281"/>
          <editParameter parameterIndex="0" slotIndex="4294967280"/>
          <channelMap>
            <channel index="0" sourceIndex="0"/>
          </channelMap>
        </audioClip>
        <audioClip clipAutoCrossfade="true" crossFadeHeadClipID="-1" crossFadeTailClipID="-1" endPoint="156712" fileID="0" hue="-1" id="7" lockedInTime="false" looped="false" name="vulture-1 48000 1" offline="false" select="false" sourceInPoint="0" sourceOutPoint="18421" startPoint="138291" zOrder="6">
          <component componentGuid="ba0e9490-baae-4cc0-8931-ee8f1737c58e" componentID="Audition.Fader" id="clipGain" name="volume" powered="true">
            <parameter index="0" name="volume" parameterValue="1"/>
            <parameter index="1" name="static gain" parameterValue="1"/>
          </component>
          <component componentGuid="04b6e051-45ac-4f53-9f9a-566990bd5d40" componentID="Audition.Mute" id="clipMute" name="Mute" powered="true">
            <parameter index="0" parameterValue="0"/>
            <parameter index="1" name="mute" parameterValue="0"/>
          </component>
          <component componentGuid="05c488ed-273d-42f1-9d10-b072302638bb" componentID="Audition.StereoPanner" id="clipPan" name="StereoPanner" powered="true">
            <parameter index="0" name="Pan" parameterValue="0"/>
          </component>
          <fadeIn crossFadeLinkType="linkedAsymmetric" endPoint="0" shape="0" startPoint="0" type="cosine"/>
          <fadeOut crossFadeLinkType="linkedAsymmetric" endPoint="18421" shape="0" startPoint="18421" type="cosine"/>
          <editParameter parameterIndex="0" slotIndex="4294967281"/>
          <editParameter parameterIndex="0" slotIndex="4294967280"/>
          <channelMap>
            <channel index="0" sourceIndex="0"/>
          </channelMap>
        </audioClip>
      </audioTrack>
      <audioTrack automationLaneOpenState="false" id="10005" index="5" select="false" visible="true">
        <trackParameters trackHeight="134" trackHue="1.4412689208984375" trackMinimized="false">
          <name>Track 5</name>
        </trackParameters>
        <trackAudioParameters audioChannelType="stereo" automationMode="1" monitoring="false" recordArmed="false" solo="false" soloSafe="false">
          <trackOutput outputID="10000" type="trackID"/>
          <trackInput inputID="1"/>
          <component componentGuid="91391ff2-d0aa-4dbb-8550-ed7b56b38af8" componentID="Audition.Fader" id="trackFader" name="volume" powered="true">
            <parameter index="0" name="volume" parameterValue="1"/>
            <parameter index="1" name="static gain" parameterValue="1"/>
          </component>
          <component componentGuid="5e8f19e9-d84c-4048-82b4-97f964da8a5f" componentID="Audition.Mute" id="trackMute" name="Mute" powered="true">
            <parameter index="0" parameterValue="0"/>
            <parameter index="1" name="mute" parameterValue="0"/>
          </component>
          <component componentGuid="94a8d971-014a-45c5-a112-de458f0d93f4" componentID="Audition.StereoPanner" id="trackPan" name="StereoPanner" powered="true">
            <parameter index="0" name="Pan" parameterValue="0"/>
          </component>
          <component componentGuid="531b0f73-08e1-4ec4-8999-2ccf338e0520" componentID="Audition.EQ" id="trackEQ" name="EQ" powered="false">
            <parameter index="0" name="Low Shelf Frequency" parameterValue="0.000834"/>
            <parameter index="1" name="Low Shelf Gain" parameterValue="0.5"/>
            <parameter index="2" name="High Shelf Frequency" parameterValue="0.7497915"/>
            <parameter index="3" name="High Shelf Gain" parameterValue="0.5"/>
            <parameter index="4" name="EQ Band 1 Center Frequency" parameterValue="0.001251"/>
            <parameter index="5" name="EQ Band 1 Q" parameterValue="0.0002"/>
            <parameter index="6" name="EQ Band 1 Gain" parameterValue="0.5"/>
            <parameter index="7" name="EQ Band 1 Enable" parameterValue="1"/>
            <parameter index="8" name="EQ Band 2 Center Frequency" parameterValue="0.0075063"/>
            <parameter index="9" name="EQ Band 2 Q" parameterValue="0.0002"/>
            <parameter index="10" name="EQ Band 2 Gain" parameterValue="0.5"/>
            <parameter index="11" name="EQ Band 2 Enable" parameterValue="1"/>
            <parameter index="12" name="EQ Band 3 Center Frequency" parameterValue="0.0325271"/>
            <parameter index="13" name="EQ Band 3 Q" parameterValue="0.0002"/>
            <parameter index="14" name="EQ Band 3 Gain" parameterValue="0.5"/>
            <parameter index="15" name="EQ Band 3 Enable" parameterValue="1"/>
            <parameter index="16" name="EQ Band 4 Center Frequency" parameterValue="0.1326105"/>
            <parameter index="17" name="EQ Band 4 Q" parameterValue="0.0002"/>
            <parameter index="18" name="EQ Band 4 Gain" parameterValue="0.5"/>
            <parameter index="19" name="EQ Band 4 Enable" parameterValue="1"/>
            <parameter index="20" name="EQ Band 5 Center Frequency" parameterValue="0.5329441"/>
            <parameter index="21" name="EQ Band 5 Q" parameterValue="0.0002"/>
            <parameter index="22" name="EQ Band 5 Gain" parameterValue="0.5"/>
            <parameter index="23" name="EQ Band 5 Enable" parameterValue="1"/>
            <parameter index="24" name="Master Gain" parameterValue="0.6666667"/>
            <parameter index="25" name="ConstantQ" parameterValue="1"/>
            <parameter index="26" name="Low Shelf Filter Order" parameterValue="0"/>
            <parameter index="27" name="High Shelf Filter Order" parameterValue="0"/>
            <parameter index="28" name="Ultra-Quiet Mode" parameterValue="0"/>
            <parameter index="29" name="Low Shelf Enable" parameterValue="1"/>
            <parameter index="30" name="High Shelf Enable" parameterValue="1"/>
            <parameter index="31" name="Original Sample Rate" parameterValue="0.25"/>
            <parameter index="32" name="EQ Band 1 Bandwidth" parameterValue="0.0025"/>
            <parameter index="33" name="EQ Band 2 Bandwidth" parameterValue="0.01"/>
            <parameter index="34" name="EQ Band 3 Bandwidth" parameterValue="0.04"/>
            <parameter index="35" name="EQ Band 4 Bandwidth" parameterValue="0.16"/>
            <parameter index="36" name="EQ Band 5 Bandwidth" parameterValue="0.64"/>
            <parameter index="37" name="High-Pass Filter Enable" parameterValue="0"/>
            <parameter index="38" name="High-Pass Cutoff Frequency" parameterValue="0"/>
            <parameter index="39" name="High-Pass Slope" parameterValue="4"/>
            <parameter index="40" name="Low-Pass Filter Enable" parameterValue="0"/>
            <parameter index="41" name="Low-Pass Cutoff Frequency" parameterValue="0.8331943"/>
            <parameter index="42" name="Low-Pass Slope" parameterValue="4"/>
            <parameter index="43" name="Bypass" parameterValue="0"/>
            <parameter index="44" name="LowGraphRange" parameterValue="1"/>
          </component>
        </trackAudioParameters>
        <editParameter parameterIndex="0" slotIndex="4294967280"/>
        <sendList>
          <sendSlot preFader="false" sendOutputID="0" slotIndex="0">
            <component componentGuid="44edc41e-39e6-4d7c-8292-2e146f10bd69" id="sendComponent" powered="false">
              <parameter index="0" name="Power On/Off" parameterValue="0"/>
              <parameter index="1" name="Level" parameterValue="0"/>
            </component>
            <component id="sendPan" powered="true"/>
          </sendSlot>
          <sendSlot preFader="false" sendOutputID="0" slotIndex="1">
            <component componentGuid="294c5739-4904-4ab5-adb8-2330d6222135" id="sendComponent" powered="false">
              <parameter index="0" name="Power On/Off" parameterValue="0"/>
              <parameter index="1" name="Level" parameterValue="0"/>
            </component>
            <component id="sendPan" powered="true"/>
          </sendSlot>
          <sendSlot preFader="false" sendOutputID="0" slotIndex="2">
            <component componentGuid="6b06a3c5-9a9a-4959-a99f-520da568bf3c" id="sendComponent" powered="false">
              <parameter index="0" name="Power On/Off" parameterValue="0"/>
              <parameter index="1" name="Level" parameterValue="0"/>
            </component>
            <component id="sendPan" powered="true"/>
          </sendSlot>
          <sendSlot preFader="false" sendOutputID="0" slotIndex="3">
            <component componentGuid="e19814d9-b91b-4cc7-a96d-c022c35ea3c9" id="sendComponent" powered="false">
              <parameter index="0" name="Power On/Off" parameterValue="0"/>
              <parameter index="1" name="Level" parameterValue="0"/>
            </component>
            <component id="sendPan" powered="true"/>
          </sendSlot>
          <sendSlot preFader="false" sendOutputID="0" slotIndex="4">
            <component componentGuid="3f02d3d3-bcfa-4cf3-bd57-74fb9bf60689" id="sendComponent" powered="false">
              <parameter index="0" name="Power On/Off" parameterValue="0"/>
              <parameter index="1" name="Level" parameterValue="0"/>
            </component>
            <component id="sendPan" powered="true"/>
          </sendSlot>
          <sendSlot preFader="false" sendOutputID="0" slotIndex="5">
            <component componentGuid="af8dbc62-1af0-4410-a672-d781d37cb6fe" id="sendComponent" powered="false">
              <parameter index="0" name="Power On/Off" parameterValue="0"/>
              <parameter index="1" name="Level" parameterValue="0"/>
            </component>
            <component id="sendPan" powered="true"/>
          </sendSlot>
          <sendSlot preFader="false" sendOutputID="0" slotIndex="6">
            <component componentGuid="dcce11c8-ba0d-4d90-91e9-b1cfc418fe75" id="sendComponent" powered="false">
              <parameter index="0" name="Power On/Off" parameterValue="0"/>
              <parameter index="1" name="Level" parameterValue="0"/>
            </component>
            <component id="sendPan" powered="true"/>
          </sendSlot>
          <sendSlot preFader="false" sendOutputID="0" slotIndex="7">
            <component componentGuid="fd6c497e-2288-4c77-9fa7-aed77edf8576" id="sendComponent" powered="false">
              <parameter index="0" name="Power On/Off" parameterValue="0"/>
              <parameter index="1" name="Level" parameterValue="0"/>
            </component>
            <component id="sendPan" powered="true"/>
          </sendSlot>
          <sendSlot preFader="false" sendOutputID="0" slotIndex="8">
            <component componentGuid="e4001c77-3e50-40b8-b4ad-111e1b6c147d" id="sendComponent" powered="false">
              <parameter index="0" name="Power On/Off" parameterValue="0"/>
              <parameter index="1" name="Level" parameterValue="0"/>
            </component>
            <component id="sendPan" powered="true"/>
          </sendSlot>
          <sendSlot preFader="false" sendOutputID="0" slotIndex="9">
            <component componentGuid="4656c8c5-518f-40e0-a6c5-b81163eb39ba" id="sendComponent" powered="false">
              <parameter index="0" name="Power On/Off" parameterValue="0"/>
              <parameter index="1" name="Level" parameterValue="0"/>
            </component>
            <component id="sendPan" powered="true"/>
          </sendSlot>
          <sendSlot preFader="false" sendOutputID="0" slotIndex="10">
            <component componentGuid="0d916e77-05e1-426c-9243-61c455632108" id="sendComponent" powered="false">
              <parameter index="0" name="Power On/Off" parameterValue="0"/>
              <parameter index="1" name="Level" parameterValue="0"/>
            </component>
            <component id="sendPan" powered="true"/>
          </sendSlot>
          <sendSlot preFader="false" sendOutputID="0" slotIndex="11">
            <component componentGuid="6ef9e7d6-5c30-4b84-85d2-e4c716bf7698" id="sendComponent" powered="false">
              <parameter index="0" name="Power On/Off" parameterValue="0"/>
              <parameter index="1" name="Level" parameterValue="0"/>
            </component>
            <component id="sendPan" powered="true"/>
          </sendSlot>
          <sendSlot preFader="false" sendOutputID="0" slotIndex="12">
            <component componentGuid="8e6a934b-533f-481d-acc9-cc0fa3b70118" id="sendComponent" powered="false">
              <parameter index="0" name="Power On/Off" parameterValue="0"/>
              <parameter index="1" name="Level" parameterValue="0"/>
            </component>
            <component id="sendPan" powered="true"/>
          </sendSlot>
          <sendSlot preFader="false" sendOutputID="0" slotIndex="13">
            <component componentGuid="03dc6f2c-cb4a-4646-b6f8-d48f5687b928" id="sendComponent" powered="false">
              <parameter index="0" name="Power On/Off" parameterValue="0"/>
              <parameter index="1" name="Level" parameterValue="0"/>
            </component>
            <component id="sendPan" powered="true"/>
          </sendSlot>
          <sendSlot preFader="false" sendOutputID="0" slotIndex="14">
            <component componentGuid="9c4e633d-4e2b-4910-9604-3516a19107fa" id="sendComponent" powered="false">
              <parameter index="0" name="Power On/Off" parameterValue="0"/>
              <parameter index="1" name="Level" parameterValue="0"/>
            </component>
            <component id="sendPan" powered="true"/>
          </sendSlot>
          <sendSlot preFader="false" sendOutputID="0" slotIndex="15">
            <component componentGuid="27e40aa6-6f74-4439-abbd-561e19bb0456" id="sendComponent" powered="false">
              <parameter index="0" name="Power On/Off" parameterValue="0"/>
              <parameter index="1" name="Level" parameterValue="0"/>
            </component>
            <component id="sendPan" powered="true"/>
          </sendSlot>
        </sendList>
      </audioTrack>
      <audioTrack automationLaneOpenState="false" id="10006" index="6" select="false" visible="true">
        <trackParameters trackHeight="134" trackHue="11.520452499389648" trackMinimized="false">
          <name>Track 6</name>
        </trackParameters>
        <trackAudioParameters audioChannelType="stereo" automationMode="1" monitoring="false" recordArmed="false" solo="false" soloSafe="false">
          <trackOutput outputID="10000" type="trackID"/>
          <trackInput inputID="1"/>
          <component componentGuid="8f8c9640-0a3f-4582-8c59-22ce30e409e5" componentID="Audition.Fader" id="trackFader" name="volume" powered="true">
            <parameter index="0" name="volume" parameterValue="1"/>
            <parameter index="1" name="static gain" parameterValue="1"/>
          </component>
          <component componentGuid="0ad64bc3-f38f-41e1-a9e8-d61c28cf5d42" componentID="Audition.Mute" id="trackMute" name="Mute" powered="true">
            <parameter index="0" parameterValue="0"/>
            <parameter index="1" name="mute" parameterValue="0"/>
          </component>
          <component componentGuid="9c8b118f-90a8-4f18-a74f-f278597118c5" componentID="Audition.StereoPanner" id="trackPan" name="StereoPanner" powered="true">
            <parameter index="0" name="Pan" parameterValue="0"/>
          </component>
          <component componentGuid="dc552fb4-0f1d-4d1a-a1f3-cd8432317646" componentID="Audition.EQ" id="trackEQ" name="EQ" powered="false">
            <parameter index="0" name="Low Shelf Frequency" parameterValue="0.000834"/>
            <parameter index="1" name="Low Shelf Gain" parameterValue="0.5"/>
            <parameter index="2" name="High Shelf Frequency" parameterValue="0.7497915"/>
            <parameter index="3" name="High Shelf Gain" parameterValue="0.5"/>
            <parameter index="4" name="EQ Band 1 Center Frequency" parameterValue="0.001251"/>
            <parameter index="5" name="EQ Band 1 Q" parameterValue="0.0002"/>
            <parameter index="6" name="EQ Band 1 Gain" parameterValue="0.5"/>
            <parameter index="7" name="EQ Band 1 Enable" parameterValue="1"/>
            <parameter index="8" name="EQ Band 2 Center Frequency" parameterValue="0.0075063"/>
            <parameter index="9" name="EQ Band 2 Q" parameterValue="0.0002"/>
            <parameter index="10" name="EQ Band 2 Gain" parameterValue="0.5"/>
            <parameter index="11" name="EQ Band 2 Enable" parameterValue="1"/>
            <parameter index="12" name="EQ Band 3 Center Frequency" parameterValue="0.0325271"/>
            <parameter index="13" name="EQ Band 3 Q" parameterValue="0.0002"/>
            <parameter index="14" name="EQ Band 3 Gain" parameterValue="0.5"/>
            <parameter index="15" name="EQ Band 3 Enable" parameterValue="1"/>
            <parameter index="16" name="EQ Band 4 Center Frequency" parameterValue="0.1326105"/>
            <parameter index="17" name="EQ Band 4 Q" parameterValue="0.0002"/>
            <parameter index="18" name="EQ Band 4 Gain" parameterValue="0.5"/>
            <parameter index="19" name="EQ Band 4 Enable" parameterValue="1"/>
            <parameter index="20" name="EQ Band 5 Center Frequency" parameterValue="0.5329441"/>
            <parameter index="21" name="EQ Band 5 Q" parameterValue="0.0002"/>
            <parameter index="22" name="EQ Band 5 Gain" parameterValue="0.5"/>
            <parameter index="23" name="EQ Band 5 Enable" parameterValue="1"/>
            <parameter index="24" name="Master Gain" parameterValue="0.6666667"/>
            <parameter index="25" name="ConstantQ" parameterValue="1"/>
            <parameter index="26" name="Low Shelf Filter Order" parameterValue="0"/>
            <parameter index="27" name="High Shelf Filter Order" parameterValue="0"/>
            <parameter index="28" name="Ultra-Quiet Mode" parameterValue="0"/>
            <parameter index="29" name="Low Shelf Enable" parameterValue="1"/>
            <parameter index="30" name="High Shelf Enable" parameterValue="1"/>
            <parameter index="31" name="Original Sample Rate" parameterValue="0.25"/>
            <parameter index="32" name="EQ Band 1 Bandwidth" parameterValue="0.0025"/>
            <parameter index="33" name="EQ Band 2 Bandwidth" parameterValue="0.01"/>
            <parameter index="34" name="EQ Band 3 Bandwidth" parameterValue="0.04"/>
            <parameter index="35" name="EQ Band 4 Bandwidth" parameterValue="0.16"/>
            <parameter index="36" name="EQ Band 5 Bandwidth" parameterValue="0.64"/>
            <parameter index="37" name="High-Pass Filter Enable" parameterValue="0"/>
            <parameter index="38" name="High-Pass Cutoff Frequency" parameterValue="0"/>
            <parameter index="39" name="High-Pass Slope" parameterValue="4"/>
            <parameter index="40" name="Low-Pass Filter Enable" parameterValue="0"/>
            <parameter index="41" name="Low-Pass Cutoff Frequency" parameterValue="0.8331943"/>
            <parameter index="42" name="Low-Pass Slope" parameterValue="4"/>
            <parameter index="43" name="Bypass" parameterValue="0"/>
            <parameter index="44" name="LowGraphRange" parameterValue="1"/>
          </component>
        </trackAudioParameters>
        <editParameter parameterIndex="0" slotIndex="4294967280"/>
        <sendList>
          <sendSlot preFader="false" sendOutputID="0" slotIndex="0">
            <component componentGuid="f68d1d67-cee6-4a1e-adec-4b8b9db4075e" id="sendComponent" powered="false">
              <parameter index="0" name="Power On/Off" parameterValue="0"/>
              <parameter index="1" name="Level" parameterValue="0"/>
            </component>
            <component id="sendPan" powered="true"/>
          </sendSlot>
          <sendSlot preFader="false" sendOutputID="0" slotIndex="1">
            <component componentGuid="229a34ff-0e9d-4978-8484-f73208a6c0cd" id="sendComponent" powered="false">
              <parameter index="0" name="Power On/Off" parameterValue="0"/>
              <parameter index="1" name="Level" parameterValue="0"/>
            </component>
            <component id="sendPan" powered="true"/>
          </sendSlot>
          <sendSlot preFader="false" sendOutputID="0" slotIndex="2">
            <component componentGuid="f788615b-e642-477c-aaca-08753dbc54e0" id="sendComponent" powered="false">
              <parameter index="0" name="Power On/Off" parameterValue="0"/>
              <parameter index="1" name="Level" parameterValue="0"/>
            </component>
            <component id="sendPan" powered="true"/>
          </sendSlot>
          <sendSlot preFader="false" sendOutputID="0" slotIndex="3">
            <component componentGuid="54e1322e-1a2f-447f-8308-385636faab7a" id="sendComponent" powered="false">
              <parameter index="0" name="Power On/Off" parameterValue="0"/>
              <parameter index="1" name="Level" parameterValue="0"/>
            </component>
            <component id="sendPan" powered="true"/>
          </sendSlot>
          <sendSlot preFader="false" sendOutputID="0" slotIndex="4">
            <component componentGuid="a9d80390-5c4b-4d21-afc1-d24f20b7f74e" id="sendComponent" powered="false">
              <parameter index="0" name="Power On/Off" parameterValue="0"/>
              <parameter index="1" name="Level" parameterValue="0"/>
            </component>
            <component id="sendPan" powered="true"/>
          </sendSlot>
          <sendSlot preFader="false" sendOutputID="0" slotIndex="5">
            <component componentGuid="dd77bd21-c228-4779-9b8b-e46e02358e2c" id="sendComponent" powered="false">
              <parameter index="0" name="Power On/Off" parameterValue="0"/>
              <parameter index="1" name="Level" parameterValue="0"/>
            </component>
            <component id="sendPan" powered="true"/>
          </sendSlot>
          <sendSlot preFader="false" sendOutputID="0" slotIndex="6">
            <component componentGuid="4b550f3d-cb70-423f-9b50-fb272bdf7c58" id="sendComponent" powered="false">
              <parameter index="0" name="Power On/Off" parameterValue="0"/>
              <parameter index="1" name="Level" parameterValue="0"/>
            </component>
            <component id="sendPan" powered="true"/>
          </sendSlot>
          <sendSlot preFader="false" sendOutputID="0" slotIndex="7">
            <component componentGuid="2dcdc0cf-4239-4941-a0ce-49914ca9df9c" id="sendComponent" powered="false">
              <parameter index="0" name="Power On/Off" parameterValue="0"/>
              <parameter index="1" name="Level" parameterValue="0"/>
            </component>
            <component id="sendPan" powered="true"/>
          </sendSlot>
          <sendSlot preFader="false" sendOutputID="0" slotIndex="8">
            <component componentGuid="07fe6c39-19e6-4263-a46c-3fffda0bbf2e" id="sendComponent" powered="false">
              <parameter index="0" name="Power On/Off" parameterValue="0"/>
              <parameter index="1" name="Level" parameterValue="0"/>
            </component>
            <component id="sendPan" powered="true"/>
          </sendSlot>
          <sendSlot preFader="false" sendOutputID="0" slotIndex="9">
            <component componentGuid="9043fc84-89a2-4e22-b000-71fe0c60ede9" id="sendComponent" powered="false">
              <parameter index="0" name="Power On/Off" parameterValue="0"/>
              <parameter index="1" name="Level" parameterValue="0"/>
            </component>
            <component id="sendPan" powered="true"/>
          </sendSlot>
          <sendSlot preFader="false" sendOutputID="0" slotIndex="10">
            <component componentGuid="11e4abe0-9c5b-4c70-9190-7327071eb5ff" id="sendComponent" powered="false">
              <parameter index="0" name="Power On/Off" parameterValue="0"/>
              <parameter index="1" name="Level" parameterValue="0"/>
            </component>
            <component id="sendPan" powered="true"/>
          </sendSlot>
          <sendSlot preFader="false" sendOutputID="0" slotIndex="11">
            <component componentGuid="ab69e170-6eda-4a0e-9159-611b048245d8" id="sendComponent" powered="false">
              <parameter index="0" name="Power On/Off" parameterValue="0"/>
              <parameter index="1" name="Level" parameterValue="0"/>
            </component>
            <component id="sendPan" powered="true"/>
          </sendSlot>
          <sendSlot preFader="false" sendOutputID="0" slotIndex="12">
            <component componentGuid="20d6231a-ea09-40ea-9a13-5b0b5fca5d33" id="sendComponent" powered="false">
              <parameter index="0" name="Power On/Off" parameterValue="0"/>
              <parameter index="1" name="Level" parameterValue="0"/>
            </component>
            <component id="sendPan" powered="true"/>
          </sendSlot>
          <sendSlot preFader="false" sendOutputID="0" slotIndex="13">
            <component componentGuid="f3cd11d5-040b-4489-bca9-cfa7ad31e403" id="sendComponent" powered="false">
              <parameter index="0" name="Power On/Off" parameterValue="0"/>
              <parameter index="1" name="Level" parameterValue="0"/>
            </component>
            <component id="sendPan" powered="true"/>
          </sendSlot>
          <sendSlot preFader="false" sendOutputID="0" slotIndex="14">
            <component componentGuid="f87f575e-0df3-4935-bdb9-85698d2b9091" id="sendComponent" powered="false">
              <parameter index="0" name="Power On/Off" parameterValue="0"/>
              <parameter index="1" name="Level" parameterValue="0"/>
            </component>
            <component id="sendPan" powered="true"/>
          </sendSlot>
          <sendSlot preFader="false" sendOutputID="0" slotIndex="15">
            <component componentGuid="32373237-2e29-4331-87a1-2618f7510b05" id="sendComponent" powered="false">
              <parameter index="0" name="Power On/Off" parameterValue="0"/>
              <parameter index="1" name="Level" parameterValue="0"/>
            </component>
            <component id="sendPan" powered="true"/>
          </sendSlot>
        </sendList>
      </audioTrack>
      <masterTrack automationLaneOpenState="false" id="10000" index="7" select="false" visible="true">
        <trackParameters trackHeight="134" trackHue="-1" trackMinimized="false">
          <name>Master</name>
        </trackParameters>
        <trackAudioParameters audioChannelType="stereo" automationMode="1" monitoring="false" recordArmed="false" solo="false" soloSafe="true">
          <trackOutput outputID="1" type="hardwareOutput"/>
          <trackInput inputID="-1"/>
          <component componentGuid="5966ed5b-46c1-4a94-8fbf-02d45c71559b" componentID="Audition.Fader" id="trackFader" name="volume" powered="true">
            <parameter index="0" name="volume" parameterValue="1"/>
            <parameter index="1" name="static gain" parameterValue="1"/>
          </component>
          <component componentGuid="31e4f95b-f69f-444c-b2c9-babe06100c0b" componentID="Audition.Mute" id="trackMute" name="Mute" powered="true">
            <parameter index="0" parameterValue="0"/>
            <parameter index="1" name="mute" parameterValue="0"/>
          </component>
          <component componentGuid="75f550d7-1b2e-42a8-8ca2-bdb050b44bc8" componentID="Audition.StereoPanner" id="trackPan" name="StereoPanner" powered="true">
            <parameter index="0" name="Pan" parameterValue="0"/>
          </component>
          <component componentGuid="91c5159a-fd08-4545-a75d-e0d2da5d1dfc" componentID="Audition.EQ" id="trackEQ" name="EQ" powered="false">
            <parameter index="0" name="Low Shelf Frequency" parameterValue="0.000834"/>
            <parameter index="1" name="Low Shelf Gain" parameterValue="0.5"/>
            <parameter index="2" name="High Shelf Frequency" parameterValue="0.7497915"/>
            <parameter index="3" name="High Shelf Gain" parameterValue="0.5"/>
            <parameter index="4" name="EQ Band 1 Center Frequency" parameterValue="0.001251"/>
            <parameter index="5" name="EQ Band 1 Q" parameterValue="0.0002"/>
            <parameter index="6" name="EQ Band 1 Gain" parameterValue="0.5"/>
            <parameter index="7" name="EQ Band 1 Enable" parameterValue="1"/>
            <parameter index="8" name="EQ Band 2 Center Frequency" parameterValue="0.0075063"/>
            <parameter index="9" name="EQ Band 2 Q" parameterValue="0.0002"/>
            <parameter index="10" name="EQ Band 2 Gain" parameterValue="0.5"/>
            <parameter index="11" name="EQ Band 2 Enable" parameterValue="1"/>
            <parameter index="12" name="EQ Band 3 Center Frequency" parameterValue="0.0325271"/>
            <parameter index="13" name="EQ Band 3 Q" parameterValue="0.0002"/>
            <parameter index="14" name="EQ Band 3 Gain" parameterValue="0.5"/>
            <parameter index="15" name="EQ Band 3 Enable" parameterValue="1"/>
            <parameter index="16" name="EQ Band 4 Center Frequency" parameterValue="0.1326105"/>
            <parameter index="17" name="EQ Band 4 Q" parameterValue="0.0002"/>
            <parameter index="18" name="EQ Band 4 Gain" parameterValue="0.5"/>
            <parameter index="19" name="EQ Band 4 Enable" parameterValue="1"/>
            <parameter index="20" name="EQ Band 5 Center Frequency" parameterValue="0.5329441"/>
            <parameter index="21" name="EQ Band 5 Q" parameterValue="0.0002"/>
            <parameter index="22" name="EQ Band 5 Gain" parameterValue="0.5"/>
            <parameter index="23" name="EQ Band 5 Enable" parameterValue="1"/>
            <parameter index="24" name="Master Gain" parameterValue="0.6666667"/>
            <parameter index="25" name="ConstantQ" parameterValue="1"/>
            <parameter index="26" name="Low Shelf Filter Order" parameterValue="0"/>
            <parameter index="27" name="High Shelf Filter Order" parameterValue="0"/>
            <parameter index="28" name="Ultra-Quiet Mode" parameterValue="0"/>
            <parameter index="29" name="Low Shelf Enable" parameterValue="1"/>
            <parameter index="30" name="High Shelf Enable" parameterValue="1"/>
            <parameter index="31" name="Original Sample Rate" parameterValue="0.25"/>
            <parameter index="32" name="EQ Band 1 Bandwidth" parameterValue="0.0025"/>
            <parameter index="33" name="EQ Band 2 Bandwidth" parameterValue="0.01"/>
            <parameter index="34" name="EQ Band 3 Bandwidth" parameterValue="0.04"/>
            <parameter index="35" name="EQ Band 4 Bandwidth" parameterValue="0.16"/>
            <parameter index="36" name="EQ Band 5 Bandwidth" parameterValue="0.64"/>
            <parameter index="37" name="High-Pass Filter Enable" parameterValue="0"/>
            <parameter index="38" name="High-Pass Cutoff Frequency" parameterValue="0"/>
            <parameter index="39" name="High-Pass Slope" parameterValue="4"/>
            <parameter index="40" name="Low-Pass Filter Enable" parameterValue="0"/>
            <parameter index="41" name="Low-Pass Cutoff Frequency" parameterValue="0.8331943"/>
            <parameter index="42" name="Low-Pass Slope" parameterValue="4"/>
            <parameter index="43" name="Bypass" parameterValue="0"/>
            <parameter index="44" name="LowGraphRange" parameterValue="1"/>
          </component>
        </trackAudioParameters>
        <editParameter parameterIndex="0" slotIndex="4294967280"/>
      </masterTrack>
    </tracks>
    <sessionState ctiPosition="0" smpteStart="0">
      <selectionState selectionDuration="0" selectionStart="0"/>
      <viewState horizontalViewDuration="346022" horizontalViewStart="0" trackControlsWidth="224" verticalScrollOffset="0"/>
      <timeFormatState beatsPerBar="4" beatsPerMinute="120" customFrameRate="12" linkToDefaultTimeSettings="true" noteLength="4" subdivisions="16" timeCodeDropFrame="false" timeCodeFrameRate="30" timeCodeNTSC="false" timeFormat="timeFormatDecimal"/>
      <mixingOptionState defaultPanModeLogarithmic="false" panPower="-3"/>
    </sessionState>
    <xmpMetadata><![CDATA[<?xpacket begin="﻿" id="W5M0MpCehiHzreSzNTczkc9d"?>
<x:xmpmeta xmlns:x="adobe:ns:meta/" x:xmptk="Adobe XMP Core 5.6-c111 79.158325, 2015/09/10-01:10:20        ">
   <rdf:RDF xmlns:rdf="http://www.w3.org/1999/02/22-rdf-syntax-ns#">
      <rdf:Description rdf:about=""
            xmlns:xmp="http://ns.adobe.com/xap/1.0/"
            xmlns:xmpMM="http://ns.adobe.com/xap/1.0/mm/"
            xmlns:stEvt="http://ns.adobe.com/xap/1.0/sType/ResourceEvent#"
            xmlns:stRef="http://ns.adobe.com/xap/1.0/sType/ResourceRef#"
            xmlns:dc="http://purl.org/dc/elements/1.1/"
            xmlns:xmpDM="http://ns.adobe.com/xmp/1.0/DynamicMedia/">
         <xmp:CreatorTool>Adobe Audition CC 2015.1 (Windows)</xmp:CreatorTool>
         <xmp:CreateDate>2016-12-02T11:14:46Z</xmp:CreateDate>
         <xmp:MetadataDate>2016-12-02T11:17:47Z</xmp:MetadataDate>
         <xmp:ModifyDate>2016-12-02T11:17:47Z</xmp:ModifyDate>
         <xmpMM:InstanceID>xmp.iid:7fc4602a-157f-ee47-8e2e-fa4f46e0309f</xmpMM:InstanceID>
         <xmpMM:DocumentID>xmp.did:7fc4602a-157f-ee47-8e2e-fa4f46e0309f</xmpMM:DocumentID>
         <xmpMM:OriginalDocumentID>xmp.did:d8661f1f-5bcc-0d4c-9f28-443fa5b0db02</xmpMM:OriginalDocumentID>
         <xmpMM:History>
            <rdf:Seq>
               <rdf:li rdf:parseType="Resource">
                  <stEvt:action>saved</stEvt:action>
                  <stEvt:instanceID>xmp.iid:d8661f1f-5bcc-0d4c-9f28-443fa5b0db02</stEvt:instanceID>
                  <stEvt:when>2016-12-02T11:14:46Z</stEvt:when>
                  <stEvt:softwareAgent>Adobe Audition CC 2015.1 (Windows)</stEvt:softwareAgent>
                  <stEvt:changed>/metadata</stEvt:changed>
               </rdf:li>
               <rdf:li rdf:parseType="Resource">
                  <stEvt:action>saved</stEvt:action>
                  <stEvt:instanceID>xmp.iid:eb158579-0b4c-1648-b0a1-3d8b8c53dc6f</stEvt:instanceID>
                  <stEvt:when>2016-12-02T11:14:47Z</stEvt:when>
                  <stEvt:softwareAgent>Adobe Audition CC 2015.1 (Windows)</stEvt:softwareAgent>
                  <stEvt:changed>/metadata</stEvt:changed>
               </rdf:li>
               <rdf:li rdf:parseType="Resource">
                  <stEvt:action>saved</stEvt:action>
                  <stEvt:instanceID>xmp.iid:487f0691-4042-6e40-89ca-b432c0394412</stEvt:instanceID>
                  <stEvt:when>2016-12-02T11:14:47Z</stEvt:when>
                  <stEvt:softwareAgent>Adobe Audition CC 2015.1 (Windows)</stEvt:softwareAgent>
                  <stEvt:changed>/</stEvt:changed>
               </rdf:li>
               <rdf:li rdf:parseType="Resource">
                  <stEvt:action>saved</stEvt:action>
                  <stEvt:instanceID>xmp.iid:f8f36ba4-a484-9e4e-8f78-64457830206c</stEvt:instanceID>
                  <stEvt:when>2016-12-02T11:14:47Z</stEvt:when>
                  <stEvt:softwareAgent>Adobe Audition CC 2015.1 (Windows)</stEvt:softwareAgent>
                  <stEvt:changed>/metadata</stEvt:changed>
               </rdf:li>
               <rdf:li rdf:parseType="Resource">
                  <stEvt:action>saved</stEvt:action>
                  <stEvt:instanceID>xmp.iid:b642eae7-55cc-a945-a795-e38143e0f76f</stEvt:instanceID>
                  <stEvt:when>2016-12-02T11:14:47Z</stEvt:when>
                  <stEvt:softwareAgent>Adobe Audition CC 2015.1 (Windows)</stEvt:softwareAgent>
                  <stEvt:changed>/</stEvt:changed>
               </rdf:li>
               <rdf:li rdf:parseType="Resource">
                  <stEvt:action>saved</stEvt:action>
                  <stEvt:instanceID>xmp.iid:2dc22d1f-8550-6844-8ca5-8660dd262ac1</stEvt:instanceID>
                  <stEvt:when>2016-12-02T11:17:47Z</stEvt:when>
                  <stEvt:softwareAgent>Adobe Audition CC 2015.1 (Windows)</stEvt:softwareAgent>
                  <stEvt:changed>/metadata</stEvt:changed>
               </rdf:li>
               <rdf:li rdf:parseType="Resource">
                  <stEvt:action>saved</stEvt:action>
                  <stEvt:instanceID>xmp.iid:7fc4602a-157f-ee47-8e2e-fa4f46e0309f</stEvt:instanceID>
                  <stEvt:when>2016-12-02T11:17:47Z</stEvt:when>
                  <stEvt:softwareAgent>Adobe Audition CC 2015.1 (Windows)</stEvt:softwareAgent>
                  <stEvt:changed>/</stEvt:changed>
               </rdf:li>
            </rdf:Seq>
         </xmpMM:History>
         <xmpMM:DerivedFrom rdf:parseType="Resource">
            <stRef:instanceID>xmp.iid:2dc22d1f-8550-6844-8ca5-8660dd262ac1</stRef:instanceID>
            <stRef:documentID>xmp.did:b642eae7-55cc-a945-a795-e38143e0f76f</stRef:documentID>
            <stRef:originalDocumentID>xmp.did:d8661f1f-5bcc-0d4c-9f28-443fa5b0db02</stRef:originalDocumentID>
         </xmpMM:DerivedFrom>
         <dc:format>application/xml</dc:format>
         <xmpDM:Tracks>
            <rdf:Bag>
               <rdf:li rdf:parseType="Resource">
                  <xmpDM:trackName>CuePoint Markers</xmpDM:trackName>
                  <xmpDM:trackType>Cue</xmpDM:trackType>
                  <xmpDM:frameRate>f48000</xmpDM:frameRate>
               </rdf:li>
               <rdf:li rdf:parseType="Resource">
                  <xmpDM:trackName>CD Track Markers</xmpDM:trackName>
                  <xmpDM:trackType>Track</xmpDM:trackType>
                  <xmpDM:frameRate>f48000</xmpDM:frameRate>
               </rdf:li>
               <rdf:li rdf:parseType="Resource">
                  <xmpDM:trackName>Subclip Markers</xmpDM:trackName>
                  <xmpDM:trackType>InOut</xmpDM:trackType>
                  <xmpDM:frameRate>f48000</xmpDM:frameRate>
               </rdf:li>
            </rdf:Bag>
         </xmpDM:Tracks>
      </rdf:Description>
   </rdf:RDF>
</x:xmpmeta>
                                                                                                    
                                                                                                    
                                                                                                    
                                                                                                    
                                                                                                    
                                                                                                    
                                                                                                    
                                                                                                    
                                                                                                    
                                                                                                    
                                                                                                    
                                                                                                    
                                                                                                    
                                                                                                    
                                                                                                    
                                                                                                    
                                                                                                    
                                                                                                    
                                                                                                    
                                                                                                    
                           
<?xpacket end="w"?>]]></xmpMetadata>
    <clipGroups/>
    <metronome enabled="false" pattern="downBeat subdivision subdivision subdivision " soundSet="sticks">
      <metronomeTrack automationLaneOpenState="false" id="40000" index="0" select="false" visible="false">
        <trackParameters trackHeight="77" trackHue="-1" trackMinimized="false">
          <name>Metronome</name>
        </trackParameters>
        <trackAudioParameters audioChannelType="mono" automationMode="1" monitoring="false" recordArmed="false" solo="false" soloSafe="true">
          <trackOutput outputID="10000" type="trackID"/>
          <trackInput inputID="-1"/>
          <component componentGuid="bdc16276-131a-4d28-97bd-627342a09ed0" componentID="Audition.Fader" id="trackFader" name="volume" powered="true">
            <parameter index="0" name="volume" parameterValue="0.5011872"/>
            <parameter index="1" name="static gain" parameterValue="1"/>
          </component>
          <component componentGuid="df034d03-028e-45d1-b336-154960bfa105" componentID="Audition.Mute" id="trackMute" name="Mute" powered="true">
            <parameter index="0" parameterValue="0"/>
            <parameter index="1" name="mute" parameterValue="0"/>
          </component>
          <component componentGuid="00493f4b-8aef-4391-bb10-f9e92288697a" componentID="Audition.StereoPanner" id="trackPan" name="StereoPanner" powered="true">
            <parameter index="0" name="Pan" parameterValue="0"/>
          </component>
          <component componentGuid="547dbd30-a5ed-4dcc-840d-0ae0e0125a10" componentID="Audition.EQ" id="trackEQ" name="EQ" powered="false">
            <parameter index="0" name="Low Shelf Frequency" parameterValue="0.000834"/>
            <parameter index="1" name="Low Shelf Gain" parameterValue="0.5"/>
            <parameter index="2" name="High Shelf Frequency" parameterValue="0.7497915"/>
            <parameter index="3" name="High Shelf Gain" parameterValue="0.5"/>
            <parameter index="4" name="EQ Band 1 Center Frequency" parameterValue="0.001251"/>
            <parameter index="5" name="EQ Band 1 Q" parameterValue="0.0002"/>
            <parameter index="6" name="EQ Band 1 Gain" parameterValue="0.5"/>
            <parameter index="7" name="EQ Band 1 Enable" parameterValue="1"/>
            <parameter index="8" name="EQ Band 2 Center Frequency" parameterValue="0.0075063"/>
            <parameter index="9" name="EQ Band 2 Q" parameterValue="0.0002"/>
            <parameter index="10" name="EQ Band 2 Gain" parameterValue="0.5"/>
            <parameter index="11" name="EQ Band 2 Enable" parameterValue="1"/>
            <parameter index="12" name="EQ Band 3 Center Frequency" parameterValue="0.0325271"/>
            <parameter index="13" name="EQ Band 3 Q" parameterValue="0.0002"/>
            <parameter index="14" name="EQ Band 3 Gain" parameterValue="0.5"/>
            <parameter index="15" name="EQ Band 3 Enable" parameterValue="1"/>
            <parameter index="16" name="EQ Band 4 Center Frequency" parameterValue="0.1326105"/>
            <parameter index="17" name="EQ Band 4 Q" parameterValue="0.0002"/>
            <parameter index="18" name="EQ Band 4 Gain" parameterValue="0.5"/>
            <parameter index="19" name="EQ Band 4 Enable" parameterValue="1"/>
            <parameter index="20" name="EQ Band 5 Center Frequency" parameterValue="0.5329441"/>
            <parameter index="21" name="EQ Band 5 Q" parameterValue="0.0002"/>
            <parameter index="22" name="EQ Band 5 Gain" parameterValue="0.5"/>
            <parameter index="23" name="EQ Band 5 Enable" parameterValue="1"/>
            <parameter index="24" name="Master Gain" parameterValue="0.6666667"/>
            <parameter index="25" name="ConstantQ" parameterValue="1"/>
            <parameter index="26" name="Low Shelf Filter Order" parameterValue="0"/>
            <parameter index="27" name="High Shelf Filter Order" parameterValue="0"/>
            <parameter index="28" name="Ultra-Quiet Mode" parameterValue="0"/>
            <parameter index="29" name="Low Shelf Enable" parameterValue="1"/>
            <parameter index="30" name="High Shelf Enable" parameterValue="1"/>
            <parameter index="31" name="Original Sample Rate" parameterValue="0.25"/>
            <parameter index="32" name="EQ Band 1 Bandwidth" parameterValue="0.0025"/>
            <parameter index="33" name="EQ Band 2 Bandwidth" parameterValue="0.01"/>
            <parameter index="34" name="EQ Band 3 Bandwidth" parameterValue="0.04"/>
            <parameter index="35" name="EQ Band 4 Bandwidth" parameterValue="0.16"/>
            <parameter index="36" name="EQ Band 5 Bandwidth" parameterValue="0.64"/>
            <parameter index="37" name="High-Pass Filter Enable" parameterValue="0"/>
            <parameter index="38" name="High-Pass Cutoff Frequency" parameterValue="0"/>
            <parameter index="39" name="High-Pass Slope" parameterValue="4"/>
            <parameter index="40" name="Low-Pass Filter Enable" parameterValue="0"/>
            <parameter index="41" name="Low-Pass Cutoff Frequency" parameterValue="0.8331943"/>
            <parameter index="42" name="Low-Pass Slope" parameterValue="4"/>
            <parameter index="43" name="Bypass" parameterValue="0"/>
            <parameter index="44" name="LowGraphRange" parameterValue="1"/>
          </component>
        </trackAudioParameters>
        <editParameter parameterIndex="0" slotIndex="4294967280"/>
        <sendList>
          <sendSlot preFader="false" sendOutputID="0" slotIndex="0">
            <component componentGuid="bb2db33e-ff3e-4bfe-b6c9-d6782138a113" id="sendComponent" powered="false">
              <parameter index="0" name="Power On/Off" parameterValue="0"/>
              <parameter index="1" name="Level" parameterValue="0"/>
            </component>
            <component id="sendPan" powered="true"/>
          </sendSlot>
          <sendSlot preFader="false" sendOutputID="0" slotIndex="1">
            <component componentGuid="bca3f1bc-961f-401f-8026-7994c4b7c8fe" id="sendComponent" powered="false">
              <parameter index="0" name="Power On/Off" parameterValue="0"/>
              <parameter index="1" name="Level" parameterValue="0"/>
            </component>
            <component id="sendPan" powered="true"/>
          </sendSlot>
          <sendSlot preFader="false" sendOutputID="0" slotIndex="2">
            <component componentGuid="e6ac754f-501e-40a7-9981-613fbb301f64" id="sendComponent" powered="false">
              <parameter index="0" name="Power On/Off" parameterValue="0"/>
              <parameter index="1" name="Level" parameterValue="0"/>
            </component>
            <component id="sendPan" powered="true"/>
          </sendSlot>
          <sendSlot preFader="false" sendOutputID="0" slotIndex="3">
            <component componentGuid="6447a092-33f9-470e-a969-80f886af7f94" id="sendComponent" powered="false">
              <parameter index="0" name="Power On/Off" parameterValue="0"/>
              <parameter index="1" name="Level" parameterValue="0"/>
            </component>
            <component id="sendPan" powered="true"/>
          </sendSlot>
          <sendSlot preFader="false" sendOutputID="0" slotIndex="4">
            <component componentGuid="ab6e7e85-c5e4-48d8-ab40-abb76d48b5fb" id="sendComponent" powered="false">
              <parameter index="0" name="Power On/Off" parameterValue="0"/>
              <parameter index="1" name="Level" parameterValue="0"/>
            </component>
            <component id="sendPan" powered="true"/>
          </sendSlot>
          <sendSlot preFader="false" sendOutputID="0" slotIndex="5">
            <component componentGuid="309c391b-61a2-4afb-8ab8-7cd4064e4181" id="sendComponent" powered="false">
              <parameter index="0" name="Power On/Off" parameterValue="0"/>
              <parameter index="1" name="Level" parameterValue="0"/>
            </component>
            <component id="sendPan" powered="true"/>
          </sendSlot>
          <sendSlot preFader="false" sendOutputID="0" slotIndex="6">
            <component componentGuid="341f53ca-299e-4416-afe7-3fbc8e67be17" id="sendComponent" powered="false">
              <parameter index="0" name="Power On/Off" parameterValue="0"/>
              <parameter index="1" name="Level" parameterValue="0"/>
            </component>
            <component id="sendPan" powered="true"/>
          </sendSlot>
          <sendSlot preFader="false" sendOutputID="0" slotIndex="7">
            <component componentGuid="d8c05e11-1b7f-489e-97d3-d2b8521ec12a" id="sendComponent" powered="false">
              <parameter index="0" name="Power On/Off" parameterValue="0"/>
              <parameter index="1" name="Level" parameterValue="0"/>
            </component>
            <component id="sendPan" powered="true"/>
          </sendSlot>
          <sendSlot preFader="false" sendOutputID="0" slotIndex="8">
            <component componentGuid="dccb54b7-6d27-48f4-915b-1e2dfca400e6" id="sendComponent" powered="false">
              <parameter index="0" name="Power On/Off" parameterValue="0"/>
              <parameter index="1" name="Level" parameterValue="0"/>
            </component>
            <component id="sendPan" powered="true"/>
          </sendSlot>
          <sendSlot preFader="false" sendOutputID="0" slotIndex="9">
            <component componentGuid="b5b3e4ad-1e81-4537-af33-c0dc9775625c" id="sendComponent" powered="false">
              <parameter index="0" name="Power On/Off" parameterValue="0"/>
              <parameter index="1" name="Level" parameterValue="0"/>
            </component>
            <component id="sendPan" powered="true"/>
          </sendSlot>
          <sendSlot preFader="false" sendOutputID="0" slotIndex="10">
            <component componentGuid="e13810e1-4238-4a90-bfbc-d380345e8151" id="sendComponent" powered="false">
              <parameter index="0" name="Power On/Off" parameterValue="0"/>
              <parameter index="1" name="Level" parameterValue="0"/>
            </component>
            <component id="sendPan" powered="true"/>
          </sendSlot>
          <sendSlot preFader="false" sendOutputID="0" slotIndex="11">
            <component componentGuid="9555a514-b42f-4371-acd1-9eaef2d52784" id="sendComponent" powered="false">
              <parameter index="0" name="Power On/Off" parameterValue="0"/>
              <parameter index="1" name="Level" parameterValue="0"/>
            </component>
            <component id="sendPan" powered="true"/>
          </sendSlot>
          <sendSlot preFader="false" sendOutputID="0" slotIndex="12">
            <component componentGuid="f4ce1f09-63be-4708-9787-cf9c99dcc316" id="sendComponent" powered="false">
              <parameter index="0" name="Power On/Off" parameterValue="0"/>
              <parameter index="1" name="Level" parameterValue="0"/>
            </component>
            <component id="sendPan" powered="true"/>
          </sendSlot>
          <sendSlot preFader="false" sendOutputID="0" slotIndex="13">
            <component componentGuid="75d0dbff-b8d4-4671-ad4b-cf145fab18fa" id="sendComponent" powered="false">
              <parameter index="0" name="Power On/Off" parameterValue="0"/>
              <parameter index="1" name="Level" parameterValue="0"/>
            </component>
            <component id="sendPan" powered="true"/>
          </sendSlot>
          <sendSlot preFader="false" sendOutputID="0" slotIndex="14">
            <component componentGuid="e98e99c6-76fc-409a-8c14-d59650d3315b" id="sendComponent" powered="false">
              <parameter index="0" name="Power On/Off" parameterValue="0"/>
              <parameter index="1" name="Level" parameterValue="0"/>
            </component>
            <component id="sendPan" powered="true"/>
          </sendSlot>
          <sendSlot preFader="false" sendOutputID="0" slotIndex="15">
            <component componentGuid="674eda7b-3871-465b-a8eb-d7640093a5b6" id="sendComponent" powered="false">
              <parameter index="0" name="Power On/Off" parameterValue="0"/>
              <parameter index="1" name="Level" parameterValue="0"/>
            </component>
            <component id="sendPan" powered="true"/>
          </sendSlot>
        </sendList>
      </metronomeTrack>
    </metronome>
  </session>

  <files>
    <file absolutePath="W:\Arnie-the-Armadillo\SoundDesign\ProjectFiles\Untitled Session 1\Conformed Files\vulture-1 48000 1.wav" id="0" mediaHandler="AmioWav" recoveryID="3921e522-9e7f-485c-a27d-0e3ab1123ce2" relativePath="../Conformed Files/vulture-1 48000 1.wav"/>
  </files>

  <audioDevice inputID="" outputID="60F4F16A-D041-4047-9E0D-D5193A7663B5">
    <inputPort id="1" name="Default Stereo Input"/>
    <outputPort id="1" name="Default Output"/>
    <outputPort id="2" name="[01M] Speakers (Realtek High Definition Audio) 1"/>
    <outputPort id="3" name="[02M] Speakers (Realtek High Definition Audio) 2"/>
    <outputPort id="4" name="Default Stereo Output"/>
    <outputPort id="5" name="[01S] Speakers (Realtek High Definition Audio) 1"/>
    <outputPort id="6" name="Default Surround Output"/>
  </audioDevice>

</sesx>
